<svg xmlns="http://www.w3.org/2000/svg" xmlns:xlink="http://www.w3.org/1999/xlink" width="800" zoomAndPan="magnify" viewBox="0 0 600 599.999999" height="800" preserveAspectRatio="xMidYMid meet" version="1.0"><defs><clipPath id="cdceb5c893"><path d="M 14.960938 14.960938 L 584.960938 14.960938 L 584.960938 584.960938 L 14.960938 584.960938 Z M 14.960938 14.960938 " clip-rule="nonzero"/></clipPath></defs><g clip-path="url(#cdceb5c893)"><path fill="#e5e7eb" d="M 584.960938 299.960938 C 584.960938 304.625 584.84375 309.285156 584.617188 313.945312 C 584.386719 318.601562 584.042969 323.253906 583.585938 327.894531 C 583.128906 332.535156 582.558594 337.164062 581.875 341.777344 C 581.191406 346.390625 580.394531 350.984375 579.484375 355.558594 C 578.574219 360.136719 577.550781 364.683594 576.417969 369.210938 C 575.285156 373.734375 574.042969 378.226562 572.6875 382.691406 C 571.332031 387.152344 569.871094 391.582031 568.300781 395.972656 C 566.726562 400.363281 565.050781 404.714844 563.265625 409.023438 C 561.480469 413.332031 559.589844 417.597656 557.597656 421.8125 C 555.601562 426.03125 553.507812 430.195312 551.308594 434.308594 C 549.109375 438.421875 546.808594 442.476562 544.414062 446.480469 C 542.015625 450.480469 539.519531 454.417969 536.929688 458.296875 C 534.335938 462.175781 531.652344 465.988281 528.875 469.734375 C 526.09375 473.480469 523.226562 477.15625 520.269531 480.761719 C 517.308594 484.367188 514.261719 487.898438 511.128906 491.355469 C 508 494.808594 504.785156 498.1875 501.484375 501.484375 C 498.1875 504.785156 494.808594 508 491.355469 511.128906 C 487.898438 514.261719 484.367188 517.308594 480.761719 520.269531 C 477.15625 523.226562 473.480469 526.09375 469.734375 528.875 C 465.988281 531.652344 462.175781 534.335938 458.296875 536.929688 C 454.417969 539.519531 450.480469 542.015625 446.480469 544.414062 C 442.476562 546.808594 438.421875 549.109375 434.308594 551.308594 C 430.195312 553.507812 426.03125 555.601562 421.8125 557.597656 C 417.597656 559.589844 413.332031 561.480469 409.023438 563.265625 C 404.714844 565.050781 400.363281 566.726562 395.972656 568.300781 C 391.582031 569.871094 387.15625 571.332031 382.691406 572.6875 C 378.226562 574.042969 373.734375 575.285156 369.210938 576.417969 C 364.683594 577.550781 360.136719 578.574219 355.558594 579.484375 C 350.984375 580.394531 346.390625 581.191406 341.777344 581.875 C 337.164062 582.558594 332.535156 583.128906 327.894531 583.585938 C 323.253906 584.042969 318.601562 584.386719 313.945312 584.617188 C 309.285156 584.84375 304.625 584.960938 299.960938 584.960938 C 295.296875 584.960938 290.632812 584.84375 285.976562 584.617188 C 281.316406 584.386719 276.667969 584.042969 272.023438 583.585938 C 267.382812 583.128906 262.753906 582.558594 258.140625 581.875 C 253.527344 581.191406 248.933594 580.394531 244.359375 579.484375 C 239.785156 578.574219 235.234375 577.550781 230.710938 576.417969 C 226.1875 575.285156 221.691406 574.042969 217.230469 572.6875 C 212.765625 571.332031 208.335938 569.871094 203.945312 568.300781 C 199.554688 566.726562 195.203125 565.050781 190.894531 563.265625 C 186.585938 561.480469 182.324219 559.589844 178.105469 557.597656 C 173.890625 555.601562 169.726562 553.507812 165.613281 551.308594 C 161.5 549.109375 157.441406 546.808594 153.441406 544.414062 C 149.441406 542.015625 145.5 539.519531 141.621094 536.929688 C 137.742188 534.335938 133.933594 531.652344 130.183594 528.875 C 126.4375 526.09375 122.761719 523.226562 119.15625 520.269531 C 115.550781 517.308594 112.023438 514.261719 108.566406 511.128906 C 105.109375 508 101.734375 504.785156 98.433594 501.484375 C 95.136719 498.1875 91.921875 494.808594 88.789062 491.355469 C 85.65625 487.898438 82.609375 484.367188 79.652344 480.761719 C 76.691406 477.15625 73.824219 473.480469 71.046875 469.734375 C 68.265625 465.988281 65.582031 462.175781 62.992188 458.296875 C 60.398438 454.417969 57.90625 450.480469 55.507812 446.480469 C 53.109375 442.476562 50.8125 438.421875 48.613281 434.308594 C 46.414062 430.195312 44.316406 426.03125 42.324219 421.8125 C 40.328125 417.597656 38.4375 413.332031 36.652344 409.023438 C 34.871094 404.714844 33.191406 400.363281 31.621094 395.972656 C 30.046875 391.582031 28.585938 387.15625 27.230469 382.691406 C 25.878906 378.226562 24.632812 373.734375 23.5 369.210938 C 22.367188 364.683594 21.347656 360.136719 20.4375 355.558594 C 19.527344 350.984375 18.730469 346.390625 18.042969 341.777344 C 17.359375 337.164062 16.789062 332.535156 16.332031 327.894531 C 15.875 323.253906 15.53125 318.601562 15.304688 313.945312 C 15.074219 309.285156 14.960938 304.625 14.960938 299.960938 C 14.960938 295.296875 15.074219 290.632812 15.304688 285.976562 C 15.53125 281.316406 15.875 276.667969 16.332031 272.023438 C 16.789062 267.382812 17.359375 262.753906 18.042969 258.140625 C 18.730469 253.527344 19.527344 248.933594 20.4375 244.359375 C 21.347656 239.785156 22.367188 235.234375 23.5 230.710938 C 24.632812 226.1875 25.878906 221.691406 27.230469 217.230469 C 28.585938 212.765625 30.046875 208.335938 31.621094 203.945312 C 33.191406 199.554688 34.871094 195.203125 36.652344 190.894531 C 38.4375 186.585938 40.328125 182.324219 42.324219 178.105469 C 44.316406 173.890625 46.414062 169.726562 48.613281 165.613281 C 50.8125 161.5 53.109375 157.441406 55.507812 153.441406 C 57.90625 149.441406 60.398438 145.5 62.992188 141.621094 C 65.582031 137.742188 68.265625 133.933594 71.046875 130.183594 C 73.824219 126.4375 76.691406 122.761719 79.652344 119.15625 C 82.609375 115.550781 85.65625 112.023438 88.789062 108.566406 C 91.921875 105.109375 95.136719 101.734375 98.433594 98.433594 C 101.734375 95.136719 105.109375 91.921875 108.566406 88.789062 C 112.019531 85.65625 115.550781 82.609375 119.15625 79.652344 C 122.761719 76.691406 126.4375 73.824219 130.183594 71.046875 C 133.933594 68.265625 137.742188 65.582031 141.621094 62.992188 C 145.5 60.398438 149.441406 57.90625 153.441406 55.507812 C 157.441406 53.109375 161.5 50.8125 165.613281 48.613281 C 169.726562 46.414062 173.890625 44.316406 178.105469 42.324219 C 182.324219 40.328125 186.585938 38.4375 190.894531 36.652344 C 195.203125 34.871094 199.554688 33.191406 203.945312 31.621094 C 208.335938 30.046875 212.765625 28.585938 217.230469 27.230469 C 221.691406 25.878906 226.1875 24.632812 230.710938 23.5 C 235.234375 22.367188 239.785156 21.347656 244.359375 20.4375 C 248.933594 19.527344 253.527344 18.730469 258.140625 18.042969 C 262.753906 17.359375 267.382812 16.789062 272.023438 16.332031 C 276.667969 15.875 281.316406 15.53125 285.976562 15.304688 C 290.632812 15.074219 295.296875 14.960938 299.960938 14.960938 C 304.625 14.960938 309.285156 15.074219 313.945312 15.304688 C 318.601562 15.53125 323.253906 15.875 327.894531 16.332031 C 332.535156 16.789062 337.164062 17.359375 341.777344 18.042969 C 346.390625 18.730469 350.984375 19.527344 355.558594 20.4375 C 360.136719 21.347656 364.683594 22.367188 369.210938 23.5 C 373.734375 24.632812 378.226562 25.878906 382.691406 27.230469 C 387.152344 28.585938 391.582031 30.046875 395.972656 31.621094 C 400.363281 33.191406 404.714844 34.871094 409.023438 36.652344 C 413.332031 38.4375 417.597656 40.328125 421.8125 42.324219 C 426.03125 44.316406 430.195312 46.414062 434.308594 48.613281 C 438.421875 50.8125 442.476562 53.109375 446.480469 55.507812 C 450.480469 57.90625 454.417969 60.398438 458.296875 62.992188 C 462.175781 65.582031 465.988281 68.265625 469.734375 71.046875 C 473.480469 73.824219 477.15625 76.691406 480.761719 79.652344 C 484.367188 82.609375 487.898438 85.65625 491.355469 88.789062 C 494.808594 91.921875 498.1875 95.136719 501.484375 98.433594 C 504.785156 101.734375 508 105.109375 511.128906 108.566406 C 514.261719 112.023438 517.308594 115.550781 520.269531 119.15625 C 523.226562 122.761719 526.09375 126.4375 528.875 130.183594 C 531.652344 133.933594 534.335938 137.742188 536.929688 141.621094 C 539.519531 145.5 542.015625 149.441406 544.414062 153.441406 C 546.808594 157.441406 549.109375 161.5 551.308594 165.613281 C 553.507812 169.726562 555.601562 173.890625 557.597656 178.105469 C 559.589844 182.324219 561.480469 186.585938 563.265625 190.894531 C 565.050781 195.203125 566.726562 199.554688 568.300781 203.945312 C 569.871094 208.335938 571.332031 212.765625 572.6875 217.230469 C 574.042969 221.691406 575.285156 226.1875 576.417969 230.710938 C 577.550781 235.234375 578.574219 239.785156 579.484375 244.359375 C 580.394531 248.933594 581.191406 253.527344 581.875 258.140625 C 582.558594 262.753906 583.128906 267.382812 583.585938 272.023438 C 584.042969 276.667969 584.386719 281.316406 584.617188 285.976562 C 584.84375 290.632812 584.960938 295.296875 584.960938 299.960938 Z M 584.960938 299.960938 " fill-opacity="1" fill-rule="nonzero"/></g><path fill="#1a1a1a" d="M 200.683594 429.691406 C 129.21875 429.773438 71.0625 371.730469 70.949219 300.203125 C 70.835938 228.53125 128.925781 170.277344 200.550781 170.226562 C 272.289062 170.195312 330.367188 228.300781 330.382812 300.15625 C 330.398438 371.550781 272.273438 429.609375 200.683594 429.675781 Z M 200.683594 429.691406 " fill-opacity="1" fill-rule="nonzero"/><path fill="#1a1a1a" d="M 473.289062 300.042969 C 473.109375 326.308594 469.25 351.910156 459.039062 376.324219 C 454.300781 387.640625 448.226562 398.164062 439.773438 407.183594 C 433.632812 413.730469 426.582031 418.992188 417.917969 421.679688 C 406.402344 425.246094 395.605469 423.242188 385.507812 416.90625 C 376.0625 410.964844 369.09375 402.640625 363.277344 393.261719 C 353.996094 378.246094 348.457031 361.796875 344.84375 344.632812 C 341.128906 327.027344 339.792969 309.210938 340.511719 291.261719 C 341.519531 266.265625 346.03125 242 356.601562 219.117188 C 361.339844 208.839844 367.269531 199.332031 375.3125 191.269531 C 381.714844 184.886719 388.976562 179.886719 397.871094 177.671875 C 409.089844 174.851562 419.367188 177.34375 428.878906 183.566406 C 438.664062 189.964844 445.734375 198.84375 451.597656 208.792969 C 460.097656 223.238281 465.324219 238.921875 468.761719 255.253906 C 471.855469 270.027344 473.304688 284.976562 473.273438 300.074219 Z M 473.289062 300.042969 " fill-opacity="1" fill-rule="nonzero"/><path fill="#1a1a1a" d="M 480.453125 298.070312 C 481.105469 285.921875 481.5625 271.980469 482.636719 258.105469 C 483.941406 241.265625 486.234375 224.539062 491.367188 208.367188 C 492.75 204.035156 494.71875 199.851562 496.738281 195.765625 C 497.652344 193.90625 499.167969 192.261719 500.699219 190.828125 C 503.335938 188.371094 506.625 188.304688 509.101562 190.910156 C 511.183594 193.109375 513.058594 195.648438 514.425781 198.335938 C 518.382812 206.039062 520.402344 214.425781 522.160156 222.863281 C 525.011719 236.511719 526.589844 250.320312 527.632812 264.210938 C 529.082031 283.429688 529.296875 302.679688 528.480469 321.929688 C 527.796875 338.132812 526.363281 354.289062 523.480469 370.265625 C 521.640625 380.492188 519.507812 390.671875 515.109375 400.183594 C 513.855469 402.886719 512.277344 405.554688 510.355469 407.820312 C 506.851562 411.988281 503.058594 411.90625 499.378906 407.902344 C 496.089844 404.335938 494.28125 399.921875 492.636719 395.441406 C 489.214844 386.128906 487.050781 376.46875 485.683594 366.683594 C 484.167969 355.949219 482.847656 345.167969 482.035156 334.371094 C 481.171875 322.890625 481.007812 311.34375 480.453125 298.039062 Z M 480.453125 298.070312 " fill-opacity="1" fill-rule="nonzero"/></svg>