
<svg xmlns="http://www.w3.org/2000/svg" xmlns:xlink="http://www.w3.org/1999/xlink" width="800" zoomAndPan="magnify" viewBox="0 0 600 599.999999" height="800" preserveAspectRatio="xMidYMid meet" version="1.0"><defs><clipPath id="a84af3f563"><path d="M 7 11.746094 L 593 11.746094 L 593 588.496094 L 7 588.496094 Z M 7 11.746094 " clip-rule="nonzero"/></clipPath></defs><path fill="" d="M 550.9375 438.75 C 460.328125 394.851562 445.886719 327.078125 445.242188 322.050781 C 444.464844 315.964844 443.585938 311.175781 450.296875 304.980469 C 456.769531 298.996094 485.488281 281.207031 493.457031 275.644531 C 506.625 266.425781 512.425781 257.226562 508.152344 245.914062 C 505.160156 238.089844 497.878906 235.144531 490.210938 235.144531 C 487.785156 235.152344 485.386719 235.421875 483.019531 235.953125 C 468.550781 239.09375 454.496094 246.347656 446.363281 248.308594 C 445.382812 248.5625 444.386719 248.695312 443.375 248.714844 C 439.039062 248.714844 437.394531 246.785156 437.8125 241.5625 C 438.832031 225.734375 440.984375 194.839844 438.488281 165.976562 C 435.0625 126.273438 422.265625 106.597656 407.09375 89.199219 C 399.753906 80.761719 365.667969 44.507812 299.890625 44.507812 C 234.113281 44.507812 200.074219 80.761719 192.777344 89.09375 C 177.5625 106.492188 164.777344 126.167969 161.386719 165.875 C 158.890625 194.734375 161.132812 225.613281 162.058594 241.457031 C 162.355469 246.425781 160.832031 248.609375 156.496094 248.609375 C 155.484375 248.589844 154.488281 248.457031 153.507812 248.203125 C 145.390625 246.246094 131.335938 238.988281 116.867188 235.847656 C 114.5 235.316406 112.101562 235.046875 109.675781 235.039062 C 101.976562 235.039062 94.726562 238.03125 91.738281 245.8125 C 87.460938 257.121094 93.230469 266.324219 106.445312 275.539062 C 114.414062 281.105469 143.132812 298.878906 149.605469 304.878906 C 156.300781 311.070312 155.4375 315.859375 154.660156 321.949219 C 154.015625 327.050781 139.558594 394.824219 48.964844 438.644531 C 43.660156 441.21875 34.628906 446.664062 50.550781 455.460938 C 75.546875 469.285156 92.183594 467.804688 105.117188 476.136719 C 116.089844 483.214844 109.601562 498.472656 117.582031 503.980469 C 127.390625 510.757812 156.378906 503.5 193.824219 515.875 C 225.21875 526.226562 244.292969 555.476562 299.964844 555.476562 C 355.636719 555.476562 375.265625 526.09375 406.105469 515.875 C 443.480469 503.5 472.527344 510.757812 482.347656 503.980469 C 490.316406 498.472656 483.84375 483.214844 494.816406 476.136719 C 507.746094 467.804688 524.371094 469.285156 549.382812 455.460938 C 565.273438 446.769531 556.242188 441.324219 550.9375 438.75 Z M 550.9375 438.75 " fill-opacity="0" fill-rule="nonzero"/><g clip-path="url(#a84af3f563)"><path fill="#e5e7eb" d="M 590.359375 433.585938 C 586.292969 422.515625 578.546875 416.589844 569.726562 411.683594 C 568.066406 410.710938 566.542969 409.933594 565.242188 409.335938 C 562.613281 407.972656 559.921875 406.65625 557.246094 405.265625 C 529.753906 390.679688 508.285156 372.277344 493.394531 350.464844 C 489.160156 344.308594 485.507812 337.828125 482.4375 331.015625 C 481.167969 327.378906 481.226562 325.3125 482.140625 323.429688 C 483.054688 321.960938 484.222656 320.738281 485.652344 319.761719 C 490.375 316.636719 495.25 313.464844 498.554688 311.324219 C 504.445312 307.511719 509.109375 304.488281 512.113281 302.347656 C 523.398438 294.449219 531.292969 286.054688 536.226562 276.675781 C 537.945312 273.433594 539.304688 270.046875 540.296875 266.515625 C 541.289062 262.984375 541.894531 259.382812 542.109375 255.722656 C 542.328125 252.058594 542.15625 248.414062 541.589844 244.789062 C 541.023438 241.160156 540.078125 237.636719 538.753906 234.214844 C 531.277344 214.527344 512.695312 202.304688 490.183594 202.304688 C 485.417969 202.300781 480.710938 202.796875 476.054688 203.800781 C 474.8125 204.070312 473.574219 204.355469 472.363281 204.667969 C 472.570312 191.203125 472.273438 176.988281 471.078125 163 C 466.832031 113.824219 449.625 88.046875 431.683594 67.488281 C 420.117188 54.519531 406.769531 43.769531 391.636719 35.234375 C 364.414062 19.675781 333.542969 11.773438 299.890625 11.773438 C 266.242188 11.773438 235.519531 19.675781 208.265625 35.234375 C 193.09375 43.769531 179.71875 54.542969 168.144531 67.550781 C 150.203125 88.105469 132.996094 113.929688 128.75 163.0625 C 127.554688 177.050781 127.257812 191.335938 127.449219 204.726562 C 126.238281 204.414062 125.015625 204.128906 123.773438 203.859375 C 119.117188 202.859375 114.40625 202.359375 109.644531 202.363281 C 87.117188 202.363281 68.503906 214.585938 61.058594 234.277344 C 59.730469 237.699219 58.777344 241.226562 58.207031 244.855469 C 57.632812 248.480469 57.453125 252.128906 57.667969 255.796875 C 57.878906 259.464844 58.480469 263.066406 59.46875 266.605469 C 60.457031 270.140625 61.808594 273.535156 63.527344 276.78125 C 68.476562 286.160156 76.367188 294.554688 87.65625 302.453125 C 90.644531 304.546875 95.324219 307.570312 101.214844 311.429688 C 104.398438 313.496094 109.046875 316.515625 113.605469 319.539062 C 115.222656 320.582031 116.546875 321.914062 117.582031 323.535156 C 118.539062 325.492188 118.570312 327.601562 117.148438 331.492188 C 114.125 338.164062 110.53125 344.511719 106.371094 350.539062 C 91.8125 371.859375 70.972656 389.929688 44.363281 404.398438 C 30.265625 411.878906 15.613281 416.875 9.425781 433.707031 C 4.761719 446.410156 7.8125 460.863281 19.664062 473.039062 C 24.042969 477.613281 29.027344 481.390625 34.613281 484.367188 C 46.210938 490.742188 58.40625 495.625 71.195312 499.011719 C 73.84375 499.695312 76.304688 500.796875 78.582031 502.320312 C 82.902344 506.105469 82.289062 511.804688 88.042969 520.152344 C 90.957031 524.503906 94.566406 528.175781 98.867188 531.164062 C 110.945312 539.511719 124.519531 540.035156 138.902344 540.589844 C 151.894531 541.082031 166.617188 541.652344 183.4375 547.203125 C 190.402344 549.507812 197.636719 553.964844 206.023438 559.171875 C 226.160156 571.558594 253.726562 588.507812 299.863281 588.507812 C 345.996094 588.507812 373.757812 571.46875 394.042969 559.035156 C 402.371094 553.917969 409.558594 549.507812 416.332031 547.261719 C 433.148438 541.695312 447.875 541.144531 460.867188 540.648438 C 475.246094 540.09375 488.820312 539.570312 500.902344 531.222656 C 506.011719 527.65625 510.117188 523.167969 513.21875 517.757812 C 517.359375 510.710938 517.253906 505.789062 521.140625 502.347656 C 523.277344 500.902344 525.585938 499.84375 528.078125 499.175781 C 541.046875 495.777344 553.402344 490.851562 565.152344 484.394531 C 571.097656 481.203125 576.328125 477.105469 580.851562 472.097656 L 581 471.917969 C 592.121094 460.007812 594.917969 445.976562 590.359375 433.585938 Z M 549.351562 455.640625 C 524.339844 469.464844 507.71875 467.984375 494.785156 476.316406 C 483.796875 483.394531 490.300781 498.652344 482.320312 504.160156 C 472.511719 510.9375 443.523438 503.679688 406.078125 516.054688 C 375.191406 526.269531 355.488281 555.65625 299.9375 555.65625 C 244.382812 555.65625 225.144531 526.332031 193.75 515.976562 C 156.378906 503.605469 127.332031 510.863281 117.507812 504.085938 C 109.542969 498.578125 116.015625 483.316406 105.042969 476.242188 C 92.09375 467.910156 75.472656 469.390625 50.476562 455.640625 C 34.554688 446.84375 43.585938 441.398438 48.890625 438.824219 C 139.484375 394.929688 153.941406 327.15625 154.582031 322.128906 C 155.359375 316.039062 156.226562 311.25 149.53125 305.058594 C 143.058594 299.074219 114.339844 281.285156 106.371094 275.71875 C 93.1875 266.503906 87.386719 257.300781 91.660156 245.992188 C 94.652344 238.164062 101.945312 235.21875 109.601562 235.21875 C 112.027344 235.226562 114.425781 235.496094 116.792969 236.027344 C 131.261719 239.167969 145.316406 246.425781 153.433594 248.382812 C 154.414062 248.636719 155.410156 248.769531 156.421875 248.789062 C 160.757812 248.789062 162.28125 246.605469 161.984375 241.636719 C 161.054688 225.792969 158.8125 194.914062 161.3125 166.054688 C 164.734375 126.347656 177.515625 106.671875 192.703125 89.273438 C 200 80.910156 234.277344 44.660156 299.832031 44.660156 C 365.382812 44.660156 399.753906 80.761719 407.046875 89.09375 C 422.25 106.492188 435.046875 126.167969 438.441406 165.875 C 440.9375 194.734375 438.785156 225.628906 437.769531 241.457031 C 437.425781 246.679688 438.996094 248.609375 443.332031 248.609375 C 444.34375 248.59375 445.339844 248.457031 446.320312 248.203125 C 454.453125 246.246094 468.503906 238.988281 482.976562 235.847656 C 485.34375 235.316406 487.742188 235.046875 490.167969 235.039062 C 497.867188 235.039062 505.117188 238.03125 508.105469 245.8125 C 512.382812 257.121094 506.609375 266.324219 493.410156 275.539062 C 485.441406 281.105469 456.726562 298.878906 450.253906 304.878906 C 443.539062 311.070312 444.421875 315.859375 445.199219 321.949219 C 445.84375 327.050781 460.28125 394.824219 550.890625 438.644531 C 556.242188 441.324219 565.273438 446.769531 549.351562 455.640625 Z M 549.351562 455.640625 " fill-opacity="1" fill-rule="nonzero"/></g></svg>