<svg xmlns="http://www.w3.org/2000/svg" xmlns:xlink="http://www.w3.org/1999/xlink" width="800" zoomAndPan="magnify" viewBox="0 0 600 599.999999" height="800" preserveAspectRatio="xMidYMid meet" version="1.0"><defs><clipPath id="692f92c571"><path d="M 51 384 L 524 384 L 524 593.710938 L 51 593.710938 Z M 51 384 " clip-rule="nonzero"/></clipPath><clipPath id="d0781d37e3"><path d="M 156 6.460938 L 549 6.460938 L 549 489 L 156 489 Z M 156 6.460938 " clip-rule="nonzero"/></clipPath></defs><g clip-path="url(#692f92c571)"><path fill="#e5e7eb" d="M 523.238281 593.710938 L 51.878906 593.710938 L 51.878906 384.136719 L 104.089844 384.136719 L 104.089844 541.5 L 470.3125 541.5 L 470.3125 384.136719 L 523.238281 384.136719 Z M 523.238281 593.710938 " fill-opacity="1" fill-rule="nonzero"/></g><g clip-path="url(#d0781d37e3)"><path fill="#e5e7eb" d="M 162.027344 369.820312 L 418.820312 423.460938 L 429.554688 371.96875 L 172.761719 318.324219 Z M 195.644531 246.792969 L 433.113281 357.636719 L 455.285156 310.433594 L 217.816406 198.855469 Z M 261.453125 130.203125 L 463.136719 297.570312 L 496.757812 257.507812 L 295.074219 90.144531 Z M 391.660156 6.460938 L 349.449219 37.933594 L 506.097656 248.242188 L 548.308594 216.769531 Z M 156.320312 488.554688 L 418.085938 488.554688 L 418.085938 436.34375 L 156.320312 436.34375 Z M 156.320312 488.554688 " fill-opacity="1" fill-rule="nonzero"/></g></svg>