<svg xmlns="http://www.w3.org/2000/svg" xmlns:xlink="http://www.w3.org/1999/xlink" width="800" zoomAndPan="magnify" viewBox="0 0 600 599.999999" height="800" preserveAspectRatio="xMidYMid meet" version="1.0"><defs><clipPath id="c715889c86"><path d="M 0 63 L 600 63 L 600 549.683594 L 0 549.683594 Z M 0 63 " clip-rule="nonzero"/></clipPath></defs><g clip-path="url(#c715889c86)"><path fill="#e5e7eb" d="M 538.03125 184.410156 C 538.390625 189.691406 538.390625 194.96875 538.390625 200.28125 C 538.390625 362.535156 414.84375 549.644531 188.9375 549.644531 L 188.9375 549.550781 C 122.203125 549.65625 56.855469 530.554688 0.675781 494.511719 C 10.375 495.675781 20.132812 496.261719 29.914062 496.285156 C 85.21875 496.332031 138.941406 477.777344 182.449219 443.617188 C 129.890625 442.625 83.804688 408.367188 67.703125 358.34375 C 86.117188 361.898438 105.082031 361.167969 123.148438 356.226562 C 65.847656 344.652344 24.625 294.316406 24.625 235.871094 C 24.625 235.332031 24.625 234.828125 24.625 234.3125 C 41.695312 243.816406 60.816406 249.097656 80.371094 249.683594 C 26.40625 213.640625 9.777344 141.871094 42.367188 85.742188 C 104.722656 162.457031 196.722656 209.09375 295.484375 214.023438 C 285.585938 171.375 299.113281 126.691406 331.023438 96.707031 C 380.492188 50.21875 458.292969 52.601562 504.796875 102.035156 C 532.296875 96.613281 558.664062 86.523438 582.789062 72.230469 C 573.617188 100.660156 554.4375 124.800781 528.800781 140.136719 C 553.144531 137.261719 576.933594 130.75 599.335938 120.804688 C 582.835938 145.507812 562.0625 167.03125 538.03125 184.410156 Z M 538.03125 184.410156 " fill-opacity="1" fill-rule="nonzero"/></g></svg>