<svg xmlns="http://www.w3.org/2000/svg" xmlns:xlink="http://www.w3.org/1999/xlink" width="400" zoomAndPan="magnify" viewBox="0 0 300 251.250001" height="335" preserveAspectRatio="xMidYMid meet" version="1.0"><defs><clipPath id="d5790e5f2f"><path d="M 0.445312 0 L 299.550781 0 L 299.550781 49 L 0.445312 49 Z M 0.445312 0 " clip-rule="nonzero"/></clipPath><clipPath id="f90bee3bba"><path d="M 0.445312 100 L 299.550781 100 L 299.550781 150 L 0.445312 150 Z M 0.445312 100 " clip-rule="nonzero"/></clipPath><clipPath id="71b942460e"><path d="M 0.445312 201 L 299.550781 201 L 299.550781 250.503906 L 0.445312 250.503906 Z M 0.445312 201 " clip-rule="nonzero"/></clipPath></defs><g clip-path="url(#d5790e5f2f)"><path fill="#e5e7eb" d="M 275.207031 48.734375 L 24.792969 48.734375 C 11.347656 48.734375 0.445312 37.835938 0.445312 24.390625 C 0.445312 10.945312 11.347656 0.0429688 24.792969 0.0429688 L 275.207031 0.0429688 C 288.652344 0.0429688 299.554688 10.945312 299.554688 24.390625 C 299.554688 37.835938 288.652344 48.734375 275.207031 48.734375 Z M 275.207031 48.734375 " fill-opacity="1" fill-rule="nonzero"/></g><g clip-path="url(#f90bee3bba)"><path fill="#e5e7eb" d="M 275.207031 149.597656 L 24.792969 149.597656 C 11.347656 149.597656 0.445312 138.695312 0.445312 125.25 C 0.445312 111.804688 11.347656 100.90625 24.792969 100.90625 L 275.207031 100.90625 C 288.652344 100.90625 299.554688 111.804688 299.554688 125.25 C 299.554688 138.695312 288.652344 149.597656 275.207031 149.597656 Z M 275.207031 149.597656 " fill-opacity="1" fill-rule="nonzero"/></g><g clip-path="url(#71b942460e)"><path fill="#e5e7eb" d="M 275.207031 250.457031 L 24.792969 250.457031 C 11.347656 250.457031 0.445312 239.558594 0.445312 226.113281 C 0.445312 212.667969 11.347656 201.765625 24.792969 201.765625 L 275.207031 201.765625 C 288.652344 201.765625 299.554688 212.667969 299.554688 226.113281 C 299.554688 239.558594 288.652344 250.457031 275.207031 250.457031 Z M 275.207031 250.457031 " fill-opacity="1" fill-rule="nonzero"/></g></svg>