<svg xmlns="http://www.w3.org/2000/svg" xmlns:xlink="http://www.w3.org/1999/xlink" width="800" zoomAndPan="magnify" viewBox="0 0 600 599.999999" height="800" preserveAspectRatio="xMidYMid meet" version="1.0"><defs><clipPath id="34cdd59aae"><path d="M 13.0625 13.0625 L 586.8125 13.0625 L 586.8125 584 L 13.0625 584 Z M 13.0625 13.0625 " clip-rule="nonzero"/></clipPath><clipPath id="6c603603e7"><path d="M 182 125 L 428 125 L 428 586.8125 L 182 586.8125 Z M 182 125 " clip-rule="nonzero"/></clipPath></defs><g clip-path="url(#34cdd59aae)"><path fill="#e5e7eb" d="M 586.8125 299.9375 C 586.8125 141.5 458.375 13.0625 299.9375 13.0625 C 141.5 13.0625 13.0625 141.5 13.0625 299.9375 C 13.0625 443.125 117.96875 561.804688 255.113281 583.328125 L 255.113281 382.863281 L 182.273438 382.863281 L 182.273438 299.9375 L 255.113281 299.9375 L 255.113281 236.734375 C 255.113281 164.835938 297.941406 125.121094 363.46875 125.121094 C 394.855469 125.121094 427.6875 130.726562 427.6875 130.726562 L 427.6875 201.324219 L 391.511719 201.324219 C 355.875 201.324219 344.761719 223.4375 344.761719 246.125 L 344.761719 299.9375 L 424.324219 299.9375 L 411.605469 382.863281 L 344.761719 382.863281 L 344.761719 583.328125 C 481.90625 561.804688 586.8125 443.125 586.8125 299.9375 " fill-opacity="1" fill-rule="nonzero"/></g><g clip-path="url(#6c603603e7)"><path fill="none" d="M 411.605469 382.863281 L 424.324219 299.9375 L 344.761719 299.9375 L 344.761719 246.125 C 344.761719 223.4375 355.875 201.324219 391.511719 201.324219 L 427.6875 201.324219 L 427.6875 130.726562 C 427.6875 130.726562 394.855469 125.121094 363.46875 125.121094 C 297.941406 125.121094 255.113281 164.835938 255.113281 236.734375 L 255.113281 299.9375 L 182.273438 299.9375 L 182.273438 382.863281 L 255.113281 382.863281 L 255.113281 583.328125 C 269.71875 585.617188 284.6875 586.8125 299.9375 586.8125 C 315.183594 586.8125 330.15625 585.617188 344.761719 583.328125 L 344.761719 382.863281 L 411.605469 382.863281 " fill-opacity="1" fill-rule="nonzero"/></g></svg>