<svg xmlns="http://www.w3.org/2000/svg" xmlns:xlink="http://www.w3.org/1999/xlink" width="800" zoomAndPan="magnify" viewBox="0 0 600 599.999999" height="800" preserveAspectRatio="xMidYMid meet" version="1.0"><defs><clipPath id="ed48b0c8fa"><path d="M 6.964844 12.945312 L 591 12.945312 L 591 586.695312 L 6.964844 586.695312 Z M 6.964844 12.945312 " clip-rule="nonzero"/></clipPath></defs><g clip-path="url(#ed48b0c8fa)"><path fill="#e5e7eb" d="M 298.964844 12.945312 C 137.496094 12.945312 6.964844 144.429688 6.964844 307.09375 C 6.964844 437.117188 90.601562 547.183594 206.625 586.136719 C 221.132812 589.066406 226.445312 579.808594 226.445312 572.019531 C 226.445312 565.203125 225.96875 541.828125 225.96875 517.472656 C 144.742188 535.007812 127.824219 482.410156 127.824219 482.410156 C 114.773438 448.316406 95.429688 439.554688 95.429688 439.554688 C 68.84375 421.539062 97.367188 421.539062 97.367188 421.539062 C 126.859375 423.484375 142.332031 451.730469 142.332031 451.730469 C 168.433594 496.53125 210.492188 483.871094 227.414062 476.078125 C 229.828125 457.085938 237.570312 443.9375 245.789062 436.632812 C 181.003906 429.816406 112.84375 404.492188 112.84375 291.503906 C 112.84375 259.363281 124.4375 233.066406 142.808594 212.613281 C 139.910156 205.3125 129.757812 175.113281 145.714844 134.691406 C 145.714844 134.691406 170.371094 126.898438 225.960938 164.886719 C 249.867188 158.417969 274.203125 155.171875 298.964844 155.144531 C 323.621094 155.144531 348.753906 158.554688 371.960938 164.886719 C 427.5625 126.898438 452.214844 134.691406 452.214844 134.691406 C 468.175781 175.113281 458.011719 205.3125 455.113281 212.613281 C 473.972656 233.066406 485.089844 259.363281 485.089844 291.503906 C 485.089844 404.492188 416.925781 429.324219 351.660156 436.632812 C 362.296875 445.886719 371.476562 463.414062 371.476562 491.175781 C 371.476562 530.621094 371 562.277344 371 572.015625 C 371 579.808594 376.320312 589.066406 390.820312 586.144531 C 506.84375 547.175781 590.480469 437.117188 590.480469 307.09375 C 590.960938 144.429688 459.949219 12.945312 298.964844 12.945312 Z M 298.964844 12.945312 " fill-opacity="1" fill-rule="evenodd"/></g></svg>