<svg xmlns="http://www.w3.org/2000/svg" xmlns:xlink="http://www.w3.org/1999/xlink" width="800" zoomAndPan="magnify" viewBox="0 0 600 599.999999" height="800" preserveAspectRatio="xMidYMid meet" version="1.0"><defs><clipPath id="ec558a4116"><path d="M 155 154 L 446 154 L 446 446 L 155 446 Z M 155 154 " clip-rule="nonzero"/></clipPath><clipPath id="5770fc2dba"><path d="M 300.433594 154.910156 C 295.433594 154.910156 290.488281 155.164062 285.617188 155.664062 C 280.746094 156.164062 275.941406 156.902344 271.21875 157.875 C 266.496094 158.84375 261.859375 160.046875 257.3125 161.464844 L 243.96875 166.363281 L 231.265625 172.496094 L 219.277344 179.792969 L 208.078125 188.167969 L 197.742188 197.558594 L 188.34375 207.882812 L 179.957031 219.074219 L 172.65625 231.050781 L 166.515625 243.738281 C 164.671875 248.078125 163.03125 252.527344 161.609375 257.070312 C 160.191406 261.613281 158.988281 266.25 158.015625 270.964844 C 157.042969 275.683594 156.304688 280.480469 155.804688 285.347656 C 155.300781 290.21875 155.050781 295.15625 155.050781 300.152344 C 155.050781 305.144531 155.304688 310.082031 155.804688 314.953125 C 156.296875 319.785156 157.035156 324.578125 158.015625 329.339844 C 158.988281 334.074219 160.191406 338.691406 161.609375 343.234375 C 163.03125 347.777344 164.671875 352.222656 166.515625 356.566406 L 172.65625 369.253906 L 179.957031 381.230469 L 188.34375 392.417969 L 197.742188 402.746094 L 208.078125 412.132812 L 219.277344 420.511719 L 231.265625 427.804688 L 243.96875 433.9375 L 257.3125 438.839844 L 271.21875 442.429688 C 275.980469 443.410156 280.78125 444.148438 285.617188 444.640625 C 290.542969 445.144531 295.480469 445.394531 300.433594 445.394531 C 305.433594 445.394531 310.378906 445.136719 315.246094 444.640625 C 320.085938 444.148438 324.882812 443.410156 329.644531 442.429688 L 343.554688 438.839844 L 356.898438 433.9375 L 369.597656 427.804688 L 381.589844 420.511719 L 392.789062 412.132812 L 403.125 402.746094 L 412.523438 392.417969 L 420.910156 381.230469 L 428.214844 369.253906 L 434.351562 356.566406 L 439.257812 343.234375 C 440.679688 338.691406 441.878906 334.054688 442.851562 329.339844 L 445.066406 314.949219 C 445.566406 310.082031 445.820312 305.144531 445.820312 300.148438 C 445.820312 295.15625 445.566406 290.214844 445.066406 285.347656 C 444.570312 280.515625 443.832031 275.722656 442.851562 270.964844 C 441.878906 266.226562 440.679688 261.613281 439.257812 257.066406 L 434.351562 243.734375 L 428.214844 231.046875 L 420.910156 219.070312 L 412.523438 207.882812 L 403.125 197.554688 L 392.789062 188.167969 L 381.589844 179.789062 L 369.597656 172.496094 L 356.898438 166.363281 L 343.554688 161.464844 L 329.644531 157.871094 L 315.246094 155.664062 C 310.320312 155.160156 305.382812 154.90625 300.433594 154.910156 Z M 300.433594 205.042969 C 303.738281 205.042969 307 205.207031 310.214844 205.53125 L 319.683594 206.964844 L 328.832031 209.292969 L 337.59375 212.476562 L 345.921875 216.464844 L 353.753906 221.207031 L 361.074219 226.667969 L 367.824219 232.789062 L 373.953125 239.53125 L 379.414062 246.847656 L 384.164062 254.6875 L 388.152344 263.011719 C 389.351562 265.859375 390.414062 268.78125 391.339844 271.765625 C 392.265625 274.75 393.042969 277.800781 393.671875 280.90625 C 394.300781 284.015625 394.765625 287.175781 395.105469 290.386719 L 395.59375 300.160156 C 395.59375 303.460938 395.429688 306.722656 395.105469 309.933594 C 394.78125 313.148438 394.304688 316.308594 393.671875 319.414062 C 393.039062 322.519531 392.261719 325.570312 391.339844 328.554688 L 388.152344 337.308594 L 384.164062 345.632812 L 379.414062 353.472656 L 373.953125 360.789062 L 367.824219 367.53125 L 361.074219 373.652344 L 353.753906 379.113281 L 345.921875 383.855469 L 337.59375 387.84375 L 328.832031 391.027344 L 319.683594 393.359375 L 310.214844 394.789062 C 306.960938 395.117188 303.699219 395.277344 300.429688 395.277344 C 297.164062 395.277344 293.902344 395.117188 290.648438 394.789062 L 281.175781 393.359375 C 278.070312 392.726562 275.015625 391.949219 272.027344 391.027344 L 263.265625 387.84375 L 254.9375 383.855469 L 247.109375 379.113281 L 239.785156 373.652344 L 233.035156 367.53125 L 226.90625 360.789062 L 221.445312 353.472656 L 216.695312 345.632812 L 212.707031 337.308594 L 209.519531 328.554688 L 207.1875 319.414062 L 205.753906 309.933594 C 205.429688 306.683594 205.265625 303.425781 205.265625 300.160156 C 205.265625 296.894531 205.429688 293.636719 205.753906 290.386719 C 206.078125 287.175781 206.554688 284.011719 207.1875 280.90625 C 207.8125 277.820312 208.589844 274.773438 209.519531 271.765625 L 212.707031 263.015625 L 216.695312 254.691406 L 221.445312 246.847656 L 226.910156 239.535156 L 233.039062 232.792969 L 239.789062 226.667969 L 247.109375 221.210938 L 254.941406 216.464844 L 263.269531 212.476562 C 266.136719 211.273438 269.058594 210.210938 272.03125 209.296875 L 281.179688 206.964844 C 284.289062 206.335938 287.457031 205.855469 290.652344 205.53125 C 293.90625 205.207031 297.164062 205.042969 300.433594 205.042969 Z M 300.433594 205.042969 " clip-rule="nonzero"/></clipPath><radialGradient gradientTransform="matrix(1.227376, -0.206076, 0.125323, 0.744976, -1338.940188, -413.14268)" gradientUnits="userSpaceOnUse" r="965.401036" cx="1006.974362" id="f8f0562176" cy="1671.867842" fx="1006.974362" fy="1671.867842"><stop stop-opacity="1" stop-color="rgb(92.498779%, 92.498779%, 94.499207%)" offset="0"/><stop stop-opacity="1" stop-color="rgb(92.498779%, 92.498779%, 94.499207%)" offset="1"/></radialGradient><clipPath id="47930776d8"><path d="M 417 113 L 487 113 L 487 184 L 417 184 Z M 417 113 " clip-rule="nonzero"/></clipPath><clipPath id="7c90d0c1db"><path d="M 451.714844 113.59375 C 450.558594 113.59375 449.40625 113.652344 448.257812 113.769531 C 447.105469 113.882812 445.964844 114.058594 444.835938 114.289062 C 443.703125 114.519531 442.585938 114.808594 441.480469 115.152344 C 440.378906 115.496094 439.292969 115.890625 438.230469 116.34375 C 437.167969 116.796875 436.128906 117.304688 435.113281 117.863281 C 434.101562 118.417969 433.117188 119.027344 432.164062 119.683594 C 431.210938 120.339844 430.292969 121.042969 429.410156 121.789062 C 428.523438 122.539062 427.679688 123.332031 426.875 124.164062 C 426.070312 124.996094 425.3125 125.871094 424.59375 126.78125 C 423.875 127.691406 423.203125 128.636719 422.582031 129.613281 C 421.957031 130.59375 421.382812 131.597656 420.859375 132.632812 C 420.335938 133.671875 419.863281 134.730469 419.445312 135.816406 C 419.027344 136.898438 418.664062 138 418.351562 139.121094 C 418.042969 140.238281 417.792969 141.371094 417.597656 142.519531 C 417.398438 143.664062 417.261719 144.816406 417.179688 145.976562 C 417.121094 146.796875 417.089844 147.617188 417.089844 148.441406 C 417.089844 149.605469 417.148438 150.765625 417.265625 151.921875 C 417.378906 153.078125 417.550781 154.226562 417.78125 155.367188 C 418.011719 156.503906 418.296875 157.628906 418.636719 158.742188 C 418.980469 159.851562 419.375 160.941406 419.824219 162.011719 C 420.273438 163.085938 420.777344 164.128906 421.332031 165.152344 C 421.882812 166.171875 422.488281 167.160156 423.140625 168.121094 C 423.792969 169.082031 424.488281 170.003906 425.234375 170.894531 C 425.976562 171.78125 426.765625 172.632812 427.59375 173.441406 C 428.421875 174.253906 429.289062 175.019531 430.191406 175.742188 C 431.097656 176.464844 432.035156 177.140625 433.007812 177.769531 C 433.980469 178.398438 434.980469 178.976562 436.011719 179.503906 C 437.042969 180.03125 438.09375 180.503906 439.171875 180.925781 C 440.246094 181.347656 441.339844 181.714844 442.453125 182.023438 C 443.566406 182.335938 444.691406 182.589844 445.832031 182.785156 C 446.96875 182.984375 448.113281 183.125 449.265625 183.207031 C 450.082031 183.265625 450.898438 183.292969 451.714844 183.292969 C 452.871094 183.292969 454.023438 183.238281 455.171875 183.121094 C 456.320312 183.003906 457.460938 182.832031 458.59375 182.601562 C 459.726562 182.371094 460.84375 182.082031 461.945312 181.738281 C 463.050781 181.394531 464.132812 180.996094 465.199219 180.542969 C 466.261719 180.089844 467.300781 179.585938 468.3125 179.027344 C 469.328125 178.472656 470.3125 177.863281 471.265625 177.207031 C 472.21875 176.550781 473.136719 175.847656 474.019531 175.101562 C 474.902344 174.351562 475.746094 173.558594 476.550781 172.726562 C 477.355469 171.890625 478.117188 171.019531 478.835938 170.109375 C 479.554688 169.199219 480.222656 168.253906 480.847656 167.273438 C 481.472656 166.296875 482.046875 165.289062 482.570312 164.253906 C 483.09375 163.21875 483.566406 162.15625 483.984375 161.074219 C 484.402344 159.988281 484.765625 158.886719 485.074219 157.769531 C 485.382812 156.648438 485.636719 155.515625 485.832031 154.371094 C 486.027344 153.222656 486.167969 152.070312 486.25 150.914062 C 486.308594 150.089844 486.335938 149.269531 486.335938 148.445312 C 486.335938 147.285156 486.277344 146.125 486.164062 144.96875 C 486.046875 143.8125 485.875 142.664062 485.648438 141.523438 C 485.417969 140.382812 485.132812 139.261719 484.789062 138.148438 C 484.449219 137.039062 484.054688 135.949219 483.601562 134.875 C 483.152344 133.804688 482.652344 132.757812 482.097656 131.738281 C 481.542969 130.71875 480.941406 129.726562 480.289062 128.769531 C 479.636719 127.808594 478.9375 126.882812 478.191406 125.996094 C 477.449219 125.105469 476.664062 124.253906 475.835938 123.445312 C 475.007812 122.636719 474.140625 121.867188 473.234375 121.144531 C 472.328125 120.425781 471.390625 119.75 470.417969 119.121094 C 469.445312 118.492188 468.445312 117.914062 467.414062 117.386719 C 466.386719 116.859375 465.335938 116.382812 464.257812 115.964844 C 463.179688 115.542969 462.085938 115.175781 460.972656 114.863281 C 459.859375 114.554688 458.734375 114.300781 457.597656 114.101562 C 456.460938 113.90625 455.316406 113.765625 454.164062 113.683594 C 453.347656 113.625 452.53125 113.59375 451.714844 113.59375 Z M 451.714844 113.59375 " clip-rule="nonzero"/></clipPath><radialGradient gradientTransform="matrix(1.227376, -0.206076, 0.125323, 0.744976, -1338.940188, -413.14268)" gradientUnits="userSpaceOnUse" r="965.401036" cx="1006.974362" id="11cddb514c" cy="1671.867842" fx="1006.974362" fy="1671.867842"><stop stop-opacity="1" stop-color="rgb(92.498779%, 92.498779%, 94.499207%)" offset="0"/><stop stop-opacity="1" stop-color="rgb(92.498779%, 92.498779%, 94.499207%)" offset="1"/></radialGradient><clipPath id="1adc3d40d2"><path d="M 15.9375 16 L 584.4375 16 L 584.4375 584 L 15.9375 584 Z M 15.9375 16 " clip-rule="nonzero"/></clipPath><clipPath id="bcb8720ed9"><path d="M 272.863281 16.011719 C 257.050781 15.984375 242.941406 16.050781 230.265625 16.230469 L 196.28125 17.140625 C 186.210938 17.578125 177.316406 18.148438 169.332031 18.886719 C 165.339844 19.253906 161.574219 19.664062 158.003906 20.117188 C 154.609375 20.546875 151.222656 21.042969 147.84375 21.613281 C 144.628906 22.160156 141.578125 22.75 138.652344 23.390625 C 135.730469 24.03125 132.9375 24.722656 130.238281 25.46875 C 127.605469 26.195312 124.992188 26.992188 122.398438 27.863281 C 119.859375 28.71875 117.382812 29.628906 114.9375 30.597656 C 110.046875 32.535156 105.273438 34.707031 100.359375 37.144531 C 96.578125 39.019531 93.085938 40.921875 89.769531 42.929688 C 86.449219 44.941406 83.308594 47.066406 80.230469 49.378906 C 77.058594 51.773438 74.003906 54.3125 71.074219 56.996094 C 68.011719 59.785156 64.882812 62.855469 61.628906 66.285156 C 57.546875 70.570312 53.996094 74.5625 50.84375 78.484375 C 49.269531 80.445312 47.792969 82.382812 46.40625 84.332031 C 45.03125 86.253906 43.71875 88.214844 42.464844 90.21875 C 41.226562 92.203125 40.054688 94.226562 38.933594 96.304688 C 37.792969 98.421875 36.714844 100.570312 35.703125 102.75 C 33.628906 107.199219 31.695312 111.992188 29.765625 117.34375 C 28.332031 121.300781 27.050781 125.304688 25.921875 129.359375 C 24.769531 133.5 23.742188 137.835938 22.828125 142.519531 C 21.914062 147.207031 21.117188 152.246094 20.414062 157.820312 C 19.660156 163.929688 19.054688 170.054688 18.605469 176.195312 C 18.09375 182.941406 17.671875 190.371094 17.328125 198.636719 L 16.507812 226.121094 L 16.066406 259.628906 L 15.9375 300.128906 L 16.3125 359.019531 L 17.476562 403.640625 L 18.375 421.070312 L 19.496094 435.511719 C 19.855469 439.40625 20.308594 443.289062 20.847656 447.160156 C 21.339844 450.601562 21.867188 453.609375 22.433594 456.214844 C 23.589844 461.511719 24.949219 466.753906 26.523438 471.941406 C 28.027344 476.910156 29.746094 481.800781 31.675781 486.621094 C 33.574219 491.335938 35.648438 495.886719 37.910156 500.265625 C 40.167969 504.644531 42.605469 508.851562 45.230469 512.890625 C 47.851562 516.933594 50.65625 520.808594 53.652344 524.519531 C 56.644531 528.230469 59.820312 531.78125 63.183594 535.164062 C 66.546875 538.550781 70.09375 541.773438 73.832031 544.835938 C 77.617188 547.9375 81.546875 550.84375 85.617188 553.558594 C 89.390625 556.085938 93.125 558.394531 96.890625 560.515625 C 100.652344 562.640625 104.449219 564.5625 108.347656 566.316406 C 112.25 568.066406 116.25 569.640625 120.425781 571.058594 C 124.605469 572.472656 128.957031 573.734375 133.558594 574.851562 C 138.160156 575.972656 143.027344 576.953125 148.183594 577.808594 C 153.335938 578.664062 158.847656 579.398438 164.734375 580.03125 C 170.617188 580.664062 176.898438 581.183594 183.644531 581.621094 C 190.394531 582.058594 197.605469 582.410156 205.355469 582.6875 C 217.328125 583.121094 235.449219 583.375 256.34375 583.472656 L 323.996094 583.335938 L 388.054688 582.4375 L 412.414062 581.753906 L 428.28125 580.9375 C 431.6875 580.660156 435.019531 580.332031 438.234375 579.949219 C 441.453125 579.5625 444.625 579.125 447.714844 578.625 C 450.800781 578.128906 453.820312 577.570312 456.789062 576.949219 C 459.722656 576.339844 462.636719 575.65625 465.539062 574.90625 C 468.410156 574.175781 471.238281 573.347656 474.039062 572.46875 C 476.839844 571.589844 479.613281 570.636719 482.367188 569.617188 C 485.140625 568.589844 487.886719 567.5 490.605469 566.339844 C 493.339844 565.171875 496.074219 563.925781 498.816406 562.605469 C 503.03125 560.574219 506.421875 558.882812 509.398438 557.230469 C 512.203125 555.695312 514.894531 553.980469 517.476562 552.089844 C 520.015625 550.214844 522.546875 548.085938 525.457031 545.402344 C 528.371094 542.714844 531.675781 539.480469 535.761719 535.390625 C 539.355469 531.800781 542.386719 528.679688 545 525.839844 C 547.613281 523 549.816406 520.445312 551.746094 517.984375 C 553.589844 515.644531 555.300781 513.214844 556.882812 510.695312 C 558.425781 508.234375 559.847656 505.683594 561.292969 502.851562 C 563.472656 498.589844 565.410156 494.640625 567.144531 490.832031 C 568.832031 487.160156 570.371094 483.429688 571.761719 479.636719 C 573.128906 475.871094 574.316406 472.050781 575.3125 468.171875 C 576.339844 464.183594 577.226562 459.972656 577.992188 455.355469 C 578.753906 450.734375 579.402344 445.707031 579.964844 440.09375 C 580.523438 434.480469 581 428.277344 581.421875 421.308594 L 582.53125 397.910156 L 583.484375 368.8125 L 584.167969 336.394531 L 584.429688 302.5 L 583.820312 235.921875 L 583.007812 206.105469 L 581.894531 180.5 L 580.511719 160.539062 C 580.007812 154.984375 579.464844 150.609375 578.890625 147.652344 C 578.253906 144.382812 577.542969 141.132812 576.757812 137.894531 C 575.992188 134.746094 575.148438 131.621094 574.234375 128.511719 C 573.339844 125.484375 572.371094 122.480469 571.324219 119.5 C 570.289062 116.558594 569.191406 113.679688 568.046875 110.863281 C 566.898438 108.046875 565.65625 105.292969 564.363281 102.601562 C 563.070312 99.90625 561.714844 97.277344 560.292969 94.710938 C 558.871094 92.144531 557.386719 89.640625 555.835938 87.195312 C 554.289062 84.753906 552.671875 82.375 550.992188 80.058594 C 549.320312 77.746094 547.578125 75.492188 545.765625 73.292969 C 543.960938 71.101562 542.089844 68.972656 540.152344 66.902344 C 538.21875 64.835938 536.21875 62.828125 534.15625 60.890625 C 532.09375 58.949219 529.964844 57.066406 527.773438 55.25 C 525.574219 53.425781 523.316406 51.671875 521.007812 49.988281 C 518.671875 48.289062 516.285156 46.660156 513.851562 45.105469 C 511.382812 43.527344 508.871094 42.023438 506.316406 40.59375 C 503.714844 39.140625 501.074219 37.765625 498.394531 36.464844 C 493.945312 34.300781 489.832031 32.382812 485.796875 30.683594 C 481.824219 28.996094 477.78125 27.496094 473.671875 26.191406 C 469.535156 24.886719 465.230469 23.773438 460.496094 22.808594 C 455.761719 21.84375 450.597656 21.042969 444.753906 20.359375 C 438.910156 19.675781 432.382812 19.125 424.921875 18.664062 C 417.457031 18.207031 409.0625 17.84375 399.476562 17.554688 L 366.902344 16.824219 L 325.675781 16.339844 L 272.882812 16.015625 Z M 300.28125 66.097656 L 376.414062 66.53125 L 405.136719 67.085938 C 413.046875 67.308594 419.082031 67.570312 422.621094 67.871094 C 427.226562 68.257812 431.617188 68.742188 435.816406 69.328125 C 439.84375 69.882812 443.851562 70.574219 447.835938 71.402344 C 451.660156 72.203125 455.308594 73.113281 458.800781 74.140625 C 462.289062 75.167969 465.625 76.316406 468.824219 77.589844 C 472.027344 78.863281 475.085938 80.265625 478.03125 81.796875 C 480.953125 83.320312 483.789062 84.992188 486.535156 86.816406 C 489.265625 88.628906 491.902344 90.582031 494.457031 92.683594 C 497.015625 94.789062 499.492188 97.042969 501.914062 99.453125 C 504.46875 101.996094 506.824219 104.589844 509 107.261719 C 511.164062 109.921875 513.164062 112.703125 514.996094 115.601562 C 516.847656 118.542969 518.511719 121.589844 519.988281 124.734375 C 521.496094 127.941406 522.851562 131.328125 524.070312 134.929688 C 525.285156 138.53125 526.371094 142.355469 527.328125 146.445312 C 528.335938 150.78125 529.175781 155.148438 529.855469 159.550781 C 530.582031 164.210938 531.203125 169.183594 531.734375 174.507812 C 532.261719 179.832031 532.699219 185.507812 533.058594 191.582031 C 533.347656 196.453125 533.597656 202.882812 533.8125 210.472656 L 534.34375 236.363281 L 534.753906 299.777344 L 534.289062 363.132812 L 533.730469 388.949219 L 532.964844 407.722656 C 532.433594 416.515625 531.871094 423.90625 531.203125 430.339844 C 530.863281 433.554688 530.5 436.53125 530.097656 439.324219 C 529.71875 441.960938 529.269531 444.585938 528.75 447.203125 C 528.277344 449.585938 527.726562 451.953125 527.101562 454.304688 C 526.503906 456.546875 525.828125 458.765625 525.082031 460.964844 C 524.328125 463.171875 523.507812 465.355469 522.625 467.515625 C 521.691406 469.792969 520.703125 472.050781 519.664062 474.285156 C 518.742188 476.277344 517.769531 478.21875 516.746094 480.105469 C 515.726562 481.976562 514.648438 483.808594 513.507812 485.605469 C 512.378906 487.386719 511.195312 489.113281 509.957031 490.789062 C 508.726562 492.457031 507.4375 494.078125 506.085938 495.652344 C 504.742188 497.222656 503.339844 498.742188 501.882812 500.207031 C 500.425781 501.671875 498.917969 503.089844 497.351562 504.453125 C 495.785156 505.820312 494.160156 507.132812 492.476562 508.394531 C 490.796875 509.660156 489.058594 510.871094 487.261719 512.035156 C 485.460938 513.195312 483.609375 514.3125 481.695312 515.375 C 479.78125 516.4375 477.804688 517.453125 475.777344 518.421875 C 473.710938 519.402344 471.617188 520.320312 469.492188 521.179688 C 467.300781 522.0625 465.085938 522.886719 462.847656 523.644531 C 458.292969 525.199219 453.492188 526.558594 448.433594 527.734375 C 443.164062 528.953125 437.851562 529.945312 432.496094 530.71875 C 430.4375 531.019531 425.707031 531.300781 418.933594 531.5625 L 393.113281 532.28125 L 319.917969 533.230469 L 243.304688 533.351562 L 213.21875 533.03125 L 193.683594 532.421875 L 179.277344 531.410156 C 174.804688 531.035156 170.644531 530.613281 166.746094 530.140625 C 162.847656 529.664062 159.21875 529.132812 155.804688 528.535156 C 152.566406 527.976562 149.351562 527.308594 146.160156 526.53125 C 143.25 525.824219 140.371094 525 137.527344 524.058594 C 134.789062 523.148438 132.167969 522.148438 129.617188 521.046875 C 127.066406 519.945312 124.589844 518.734375 122.136719 517.417969 C 119.683594 516.097656 117.257812 514.667969 114.800781 513.105469 C 112.949219 511.929688 111.160156 510.738281 109.4375 509.476562 C 107.714844 508.214844 106.046875 506.957031 104.445312 505.636719 C 102.84375 504.320312 101.304688 502.960938 99.820312 501.5625 C 98.34375 500.167969 96.921875 498.726562 95.550781 497.230469 C 94.183594 495.742188 92.878906 494.207031 91.625 492.621094 C 90.367188 491.023438 89.171875 489.386719 88.03125 487.703125 C 86.878906 485.992188 85.789062 484.246094 84.761719 482.457031 C 83.722656 480.652344 82.734375 478.789062 81.796875 476.867188 C 80.84375 474.90625 79.953125 472.914062 79.128906 470.898438 C 78.289062 468.84375 77.496094 466.722656 76.75 464.535156 C 75.257812 460.152344 73.945312 455.492188 72.804688 450.519531 C 71.664062 445.546875 70.691406 440.265625 69.871094 434.636719 C 69.046875 429.011719 68.382812 423.042969 67.855469 416.703125 C 67.464844 412.03125 67.15625 404.753906 66.917969 395.578125 L 66.421875 362.929688 L 66.605469 279.710938 L 68.039062 200.1875 L 69.132812 172.167969 L 69.75 162.90625 C 69.964844 160.433594 70.1875 158.601562 70.414062 157.5 C 71.167969 153.882812 71.921875 150.515625 72.703125 147.363281 C 73.433594 144.386719 74.246094 141.4375 75.136719 138.507812 C 75.988281 135.742188 76.882812 133.152344 77.835938 130.699219 C 78.761719 128.320312 79.785156 125.988281 80.917969 123.703125 C 82.019531 121.480469 83.207031 119.355469 84.492188 117.285156 C 85.78125 115.210938 87.171875 113.203125 88.6875 111.207031 C 90.203125 109.207031 91.832031 107.234375 93.609375 105.234375 C 95.386719 103.234375 97.304688 101.214844 99.382812 99.132812 C 101.808594 96.695312 104.328125 94.363281 106.949219 92.132812 C 109.421875 90.027344 111.996094 88.054688 114.671875 86.214844 C 117.296875 84.394531 119.992188 82.773438 122.800781 81.28125 C 125.605469 79.792969 128.523438 78.445312 131.59375 77.234375 C 134.660156 76.023438 137.886719 74.941406 141.300781 73.957031 C 144.890625 72.949219 148.515625 72.09375 152.171875 71.382812 C 156.019531 70.628906 160.105469 69.972656 164.464844 69.398438 C 168.828125 68.824219 173.46875 68.332031 178.429688 67.898438 C 181.890625 67.601562 187.851562 67.335938 195.703125 67.113281 L 224.28125 66.546875 L 300.296875 66.082031 Z M 300.28125 66.097656 " clip-rule="nonzero"/></clipPath><radialGradient gradientTransform="matrix(1.227376, -0.206076, 0.125323, 0.744976, -1338.940188, -413.14268)" gradientUnits="userSpaceOnUse" r="965.401036" cx="1006.974362" id="7116999269" cy="1671.867842" fx="1006.974362" fy="1671.867842"><stop stop-opacity="1" stop-color="rgb(92.498779%, 92.498779%, 94.499207%)" offset="0"/><stop stop-opacity="1" stop-color="rgb(92.498779%, 92.498779%, 94.499207%)" offset="1"/></radialGradient></defs><g clip-path="url(#ec558a4116)"><g clip-path="url(#5770fc2dba)"><path fill="url(#f8f0562176)" d="M 107.527344 162.886719 L 163.039062 492.871094 L 493.34375 437.414062 L 437.832031 107.429688 Z M 107.527344 162.886719 " fill-rule="nonzero"/></g></g><g clip-path="url(#47930776d8)"><g clip-path="url(#7c90d0c1db)"><path fill="url(#11cddb514c)" d="M 405.6875 115.507812 L 418.992188 194.601562 L 497.738281 181.378906 L 484.433594 102.285156 Z M 405.6875 115.507812 " fill-rule="nonzero"/></g></g><g clip-path="url(#1adc3d40d2)"><g clip-path="url(#bcb8720ed9)"><path fill="url(#7116999269)" d="M -76.902344 31.574219 L 31.554688 676.300781 L 677.269531 567.882812 L 568.8125 -76.839844 Z M -76.902344 31.574219 " fill-rule="nonzero"/></g></g></svg>