<svg xmlns="http://www.w3.org/2000/svg" xmlns:xlink="http://www.w3.org/1999/xlink" width="1000" zoomAndPan="magnify" viewBox="0 0 750 899.99999" height="1200" preserveAspectRatio="xMidYMid meet" version="1.0"><defs><clipPath id="7cd3ab40d8"><path d="M 11 85.96875 L 739 85.96875 L 739 814.21875 L 11 814.21875 Z M 11 85.96875 " clip-rule="nonzero"/></clipPath></defs><g clip-path="url(#7cd3ab40d8)"><path fill="#e5e7eb" d="M 678.378906 85.96875 L 72.171875 85.96875 C 38.65625 85.96875 11.695312 113.292969 11.695312 146.445312 L 11.695312 753.742188 C 11.695312 787.261719 39.019531 814.21875 72.171875 814.21875 L 678.015625 814.21875 C 711.53125 814.21875 738.488281 786.894531 738.488281 753.742188 L 738.488281 146.445312 C 738.855469 113.292969 711.894531 85.96875 678.378906 85.96875 Z M 227.003906 686.710938 L 119.53125 686.710938 L 119.53125 363.933594 L 227.003906 363.933594 Z M 173.085938 324.953125 C 139.203125 324.953125 111.882812 297.632812 111.882812 263.75 C 111.882812 229.871094 139.203125 202.546875 173.085938 202.546875 C 206.964844 202.546875 234.289062 229.871094 234.289062 263.75 C 234.289062 297.632812 206.964844 324.953125 173.085938 324.953125 Z M 631.382812 686.710938 L 523.546875 686.710938 L 521 495.085938 C 521 495.085938 523.546875 444.082031 467.808594 444.445312 C 412.070312 444.8125 404.421875 495.085938 404.421875 495.085938 L 404.421875 686.710938 L 295.855469 686.710938 L 295.855469 363.933594 L 400.046875 363.933594 L 400.046875 408.378906 C 400.046875 408.378906 404.421875 393.808594 428.464844 376.6875 C 452.507812 359.5625 492.21875 355.921875 509.339844 356.648438 C 526.464844 357.378906 549.777344 354.464844 588.757812 381.421875 C 630.65625 410.203125 631.746094 485.613281 631.746094 485.613281 Z M 631.382812 686.710938 " fill-opacity="1" fill-rule="nonzero"/></g></svg>