<svg xmlns="http://www.w3.org/2000/svg" xmlns:xlink="http://www.w3.org/1999/xlink" width="188" zoomAndPan="magnify" viewBox="0 0 141 251.250001" height="335" preserveAspectRatio="xMidYMid meet" version="1.0"><defs><clipPath id="7dfdbbf9c5"><path d="M 0.210938 0 L 140.789062 0 L 140.789062 250.503906 L 0.210938 250.503906 Z M 0.210938 0 " clip-rule="nonzero"/></clipPath></defs><g clip-path="url(#7dfdbbf9c5)"><path fill="#9ca3af" d="M 70.460938 0.226562 C 31.664062 0.226562 0.210938 31.613281 0.210938 70.324219 C 0.210938 109.039062 70.460938 250.273438 70.460938 250.273438 C 70.460938 250.273438 140.710938 109.039062 140.710938 70.324219 C 140.710938 31.609375 109.257812 0.226562 70.460938 0.226562 Z M 70.460938 101.4375 C 53.242188 101.4375 39.28125 87.507812 39.28125 70.328125 C 39.28125 53.148438 53.242188 39.21875 70.460938 39.21875 C 87.679688 39.21875 101.636719 53.144531 101.636719 70.328125 C 101.636719 87.511719 87.679688 101.4375 70.460938 101.4375 Z M 70.460938 101.4375 " fill-opacity="1" fill-rule="nonzero"/></g></svg>