<svg xmlns="http://www.w3.org/2000/svg" xmlns:xlink="http://www.w3.org/1999/xlink" width="800" zoomAndPan="magnify" viewBox="0 0 600 599.999999" height="800" preserveAspectRatio="xMidYMid meet" version="1.0"><rect x="-60" width="720" fill="none" y="-60" height="719.999999" fill-opacity="1"/><rect x="-60" width="720" fill="none" y="-60" height="719.999999" fill-opacity="1"/><rect x="-60" width="720" fill="none" y="-60" height="719.999999" fill-opacity="1"/><path fill="#e5e7eb" d="M 349.429688 78.585938 C 325.5 50.195312 304.894531 21.359375 300.6875 15.375 C 300.585938 15.269531 300.464844 15.183594 300.332031 15.128906 C 300.199219 15.070312 300.054688 15.039062 299.910156 15.039062 C 299.765625 15.039062 299.621094 15.070312 299.488281 15.128906 C 299.355469 15.183594 299.234375 15.269531 299.136719 15.375 C 294.925781 21.363281 274.320312 50.195312 250.390625 78.585938 C 45.007812 340.539062 282.738281 517.316406 282.738281 517.316406 L 284.734375 518.648438 C 286.503906 545.929688 290.9375 585.195312 290.9375 585.195312 L 308.664062 585.195312 C 308.664062 585.195312 313.09375 546.152344 314.863281 518.648438 L 316.859375 517.097656 C 317.082031 517.324219 554.8125 340.539062 349.429688 78.585938 Z M 299.800781 513.328125 C 299.800781 513.328125 289.164062 504.234375 286.285156 499.578125 L 286.285156 499.128906 L 299.136719 213.890625 C 299.136719 213.003906 300.464844 213.003906 300.464844 213.890625 L 313.316406 499.128906 L 313.316406 499.578125 C 310.433594 504.234375 299.800781 513.328125 299.800781 513.328125 Z M 299.800781 513.328125 " fill-opacity="1" fill-rule="nonzero"/></svg>