<svg xmlns="http://www.w3.org/2000/svg" xmlns:xlink="http://www.w3.org/1999/xlink" width="800" zoomAndPan="magnify" viewBox="0 0 600 599.999999" height="800" preserveAspectRatio="xMidYMid meet" version="1.0"><defs><g/></defs><g fill="#e5e7eb" fill-opacity="1"><g transform="translate(112.419349, 559.761668)"><g><path d="M 5.5625 0 L 5.5625 -42.828125 L 22.765625 -42.828125 C 27.203125 -42.828125 30.546875 -41.804688 32.796875 -39.765625 C 35.054688 -37.722656 36.1875 -34.90625 36.1875 -31.3125 C 36.1875 -28.71875 35.523438 -26.585938 34.203125 -24.921875 C 32.890625 -23.265625 30.921875 -22 28.296875 -21.125 L 28.296875 -20.515625 C 29.648438 -19.921875 30.738281 -19.046875 31.5625 -17.890625 C 32.394531 -16.742188 33.179688 -15.039062 33.921875 -12.78125 L 38.203125 0 L 29.5 0 L 25.3125 -12.796875 C 24.882812 -14.085938 24.398438 -15.085938 23.859375 -15.796875 C 23.328125 -16.515625 22.644531 -17.035156 21.8125 -17.359375 C 20.976562 -17.679688 19.898438 -17.84375 18.578125 -17.84375 L 14.03125 -17.84375 L 14.03125 0 Z M 21.734375 -24.546875 C 25.835938 -24.546875 27.890625 -26.460938 27.890625 -30.296875 C 27.890625 -34.179688 25.835938 -36.125 21.734375 -36.125 L 14.03125 -36.125 L 14.03125 -24.546875 Z M 21.734375 -24.546875 "/></g></g></g><g fill="#e5e7eb" fill-opacity="1"><g transform="translate(152.460359, 559.761668)"><g><path d="M 31.9375 -14.328125 L 11.15625 -14.328125 C 11.394531 -11.515625 12.195312 -9.46875 13.5625 -8.1875 C 14.925781 -6.90625 16.789062 -6.265625 19.15625 -6.265625 C 21.007812 -6.265625 22.515625 -6.609375 23.671875 -7.296875 C 24.828125 -7.992188 25.753906 -9.046875 26.453125 -10.453125 L 27.078125 -10.453125 L 32.46875 -7 C 31.40625 -4.738281 29.8125 -2.90625 27.6875 -1.5 C 25.5625 -0.09375 22.71875 0.609375 19.15625 0.609375 C 15.820312 0.609375 12.9375 -0.0195312 10.5 -1.28125 C 8.070312 -2.550781 6.195312 -4.441406 4.875 -6.953125 C 3.5625 -9.460938 2.90625 -12.523438 2.90625 -16.140625 C 2.90625 -19.816406 3.597656 -22.910156 4.984375 -25.421875 C 6.367188 -27.941406 8.242188 -29.820312 10.609375 -31.0625 C 12.972656 -32.3125 15.628906 -32.9375 18.578125 -32.9375 C 23.148438 -32.9375 26.648438 -31.722656 29.078125 -29.296875 C 31.503906 -26.878906 32.71875 -23.328125 32.71875 -18.640625 C 32.71875 -16.929688 32.660156 -15.609375 32.546875 -14.671875 Z M 24.96875 -19.578125 C 24.882812 -22.035156 24.3125 -23.820312 23.25 -24.9375 C 22.1875 -26.0625 20.628906 -26.625 18.578125 -26.625 C 14.472656 -26.625 12.0625 -24.273438 11.34375 -19.578125 Z M 24.96875 -19.578125 "/></g></g></g><g fill="#e5e7eb" fill-opacity="1"><g transform="translate(187.580455, 559.761668)"><g><path d="M 12.59375 0.609375 C 10.53125 0.609375 8.734375 0.226562 7.203125 -0.53125 C 5.679688 -1.289062 4.507812 -2.40625 3.6875 -3.875 C 2.875 -5.351562 2.46875 -7.128906 2.46875 -9.203125 C 2.46875 -11.117188 2.875 -12.722656 3.6875 -14.015625 C 4.507812 -15.316406 5.78125 -16.378906 7.5 -17.203125 C 9.21875 -18.035156 11.460938 -18.675781 14.234375 -19.125 C 16.171875 -19.4375 17.640625 -19.78125 18.640625 -20.15625 C 19.648438 -20.53125 20.332031 -20.953125 20.6875 -21.421875 C 21.039062 -21.890625 21.21875 -22.484375 21.21875 -23.203125 C 21.21875 -24.234375 20.851562 -25.019531 20.125 -25.5625 C 19.40625 -26.113281 18.207031 -26.390625 16.53125 -26.390625 C 14.726562 -26.390625 13.015625 -25.988281 11.390625 -25.1875 C 9.773438 -24.394531 8.367188 -23.34375 7.171875 -22.03125 L 6.59375 -22.03125 L 3.1875 -27.15625 C 4.832031 -28.976562 6.835938 -30.394531 9.203125 -31.40625 C 11.566406 -32.425781 14.144531 -32.9375 16.9375 -32.9375 C 21.207031 -32.9375 24.300781 -32.023438 26.21875 -30.203125 C 28.132812 -28.390625 29.09375 -25.8125 29.09375 -22.46875 L 29.09375 -8.4375 C 29.09375 -6.988281 29.726562 -6.265625 31 -6.265625 C 31.488281 -6.265625 31.96875 -6.351562 32.4375 -6.53125 L 32.84375 -6.421875 L 33.421875 -0.765625 C 32.972656 -0.472656 32.347656 -0.234375 31.546875 -0.046875 C 30.753906 0.140625 29.878906 0.234375 28.921875 0.234375 C 26.984375 0.234375 25.472656 -0.132812 24.390625 -0.875 C 23.304688 -1.625 22.53125 -2.785156 22.0625 -4.359375 L 21.453125 -4.421875 C 19.867188 -1.066406 16.914062 0.609375 12.59375 0.609375 Z M 15.171875 -5.453125 C 17.046875 -5.453125 18.546875 -6.082031 19.671875 -7.34375 C 20.796875 -8.601562 21.359375 -10.351562 21.359375 -12.59375 L 21.359375 -15.875 L 20.796875 -16 C 20.304688 -15.601562 19.664062 -15.273438 18.875 -15.015625 C 18.09375 -14.753906 16.957031 -14.492188 15.46875 -14.234375 C 13.707031 -13.941406 12.441406 -13.4375 11.671875 -12.71875 C 10.898438 -12.007812 10.515625 -11.003906 10.515625 -9.703125 C 10.515625 -8.316406 10.925781 -7.257812 11.75 -6.53125 C 12.570312 -5.8125 13.710938 -5.453125 15.171875 -5.453125 Z M 15.171875 -5.453125 "/></g></g></g><g fill="#e5e7eb" fill-opacity="1"><g transform="translate(221.64607, 559.761668)"><g><path d="M 18.84375 0.609375 C 15.71875 0.609375 12.953125 -0.0351562 10.546875 -1.328125 C 8.140625 -2.628906 6.265625 -4.539062 4.921875 -7.0625 C 3.578125 -9.582031 2.90625 -12.609375 2.90625 -16.140625 C 2.90625 -19.691406 3.578125 -22.726562 4.921875 -25.25 C 6.265625 -27.769531 8.128906 -29.679688 10.515625 -30.984375 C 12.898438 -32.285156 15.625 -32.9375 18.6875 -32.9375 C 25.507812 -32.9375 29.875 -30.460938 31.78125 -25.515625 L 26.21875 -21.53125 L 25.609375 -21.53125 C 24.941406 -23.050781 24.078125 -24.179688 23.015625 -24.921875 C 21.953125 -25.671875 20.507812 -26.046875 18.6875 -26.046875 C 16.34375 -26.046875 14.515625 -25.234375 13.203125 -23.609375 C 11.898438 -21.992188 11.25 -19.503906 11.25 -16.140625 C 11.25 -12.816406 11.910156 -10.335938 13.234375 -8.703125 C 14.566406 -7.078125 16.4375 -6.265625 18.84375 -6.265625 C 20.59375 -6.265625 22.078125 -6.738281 23.296875 -7.6875 C 24.523438 -8.632812 25.398438 -10 25.921875 -11.78125 L 26.546875 -11.84375 L 32.3125 -8.671875 C 31.488281 -5.941406 29.96875 -3.710938 27.75 -1.984375 C 25.539062 -0.253906 22.570312 0.609375 18.84375 0.609375 Z M 18.84375 0.609375 "/></g></g></g><g fill="#e5e7eb" fill-opacity="1"><g transform="translate(254.950116, 559.761668)"><g><path d="M 22.296875 -7.703125 L 24.40625 -1.703125 C 23.53125 -0.972656 22.425781 -0.40625 21.09375 0 C 19.769531 0.40625 18.265625 0.609375 16.578125 0.609375 C 13.085938 0.609375 10.429688 -0.335938 8.609375 -2.234375 C 6.796875 -4.140625 5.890625 -6.910156 5.890625 -10.546875 L 5.890625 -25.90625 L 0.96875 -25.90625 L 0.96875 -32.34375 L 5.890625 -32.34375 L 5.890625 -38.640625 L 14 -39.96875 L 14 -32.34375 L 23.171875 -32.34375 L 23.171875 -25.90625 L 14 -25.90625 L 14 -11.140625 C 14 -9.535156 14.332031 -8.363281 15 -7.625 C 15.664062 -6.894531 16.632812 -6.53125 17.90625 -6.53125 C 19.34375 -6.53125 20.601562 -6.921875 21.6875 -7.703125 Z M 22.296875 -7.703125 "/></g></g></g><g fill="#e5e7eb" fill-opacity="1"><g transform="translate(280.052639, 559.761668)"><g/></g></g><g fill="#e5e7eb" fill-opacity="1"><g transform="translate(294.200271, 559.761668)"><g><path d="M 13.765625 0 L 5.5625 0 L 5.5625 -42.828125 L 15.265625 -42.828125 L 32.46875 -15.234375 L 33.21875 -15.359375 L 33.21875 -42.828125 L 41.375 -42.828125 L 41.375 0 L 32.703125 0 L 14.5 -29.46875 L 13.765625 -29.359375 Z M 13.765625 0 "/></g></g></g><g fill="#e5e7eb" fill-opacity="1"><g transform="translate(341.154004, 559.761668)"><g><path d="M 12.59375 0.609375 C 10.53125 0.609375 8.734375 0.226562 7.203125 -0.53125 C 5.679688 -1.289062 4.507812 -2.40625 3.6875 -3.875 C 2.875 -5.351562 2.46875 -7.128906 2.46875 -9.203125 C 2.46875 -11.117188 2.875 -12.722656 3.6875 -14.015625 C 4.507812 -15.316406 5.78125 -16.378906 7.5 -17.203125 C 9.21875 -18.035156 11.460938 -18.675781 14.234375 -19.125 C 16.171875 -19.4375 17.640625 -19.78125 18.640625 -20.15625 C 19.648438 -20.53125 20.332031 -20.953125 20.6875 -21.421875 C 21.039062 -21.890625 21.21875 -22.484375 21.21875 -23.203125 C 21.21875 -24.234375 20.851562 -25.019531 20.125 -25.5625 C 19.40625 -26.113281 18.207031 -26.390625 16.53125 -26.390625 C 14.726562 -26.390625 13.015625 -25.988281 11.390625 -25.1875 C 9.773438 -24.394531 8.367188 -23.34375 7.171875 -22.03125 L 6.59375 -22.03125 L 3.1875 -27.15625 C 4.832031 -28.976562 6.835938 -30.394531 9.203125 -31.40625 C 11.566406 -32.425781 14.144531 -32.9375 16.9375 -32.9375 C 21.207031 -32.9375 24.300781 -32.023438 26.21875 -30.203125 C 28.132812 -28.390625 29.09375 -25.8125 29.09375 -22.46875 L 29.09375 -8.4375 C 29.09375 -6.988281 29.726562 -6.265625 31 -6.265625 C 31.488281 -6.265625 31.96875 -6.351562 32.4375 -6.53125 L 32.84375 -6.421875 L 33.421875 -0.765625 C 32.972656 -0.472656 32.347656 -0.234375 31.546875 -0.046875 C 30.753906 0.140625 29.878906 0.234375 28.921875 0.234375 C 26.984375 0.234375 25.472656 -0.132812 24.390625 -0.875 C 23.304688 -1.625 22.53125 -2.785156 22.0625 -4.359375 L 21.453125 -4.421875 C 19.867188 -1.066406 16.914062 0.609375 12.59375 0.609375 Z M 15.171875 -5.453125 C 17.046875 -5.453125 18.546875 -6.082031 19.671875 -7.34375 C 20.796875 -8.601562 21.359375 -10.351562 21.359375 -12.59375 L 21.359375 -15.875 L 20.796875 -16 C 20.304688 -15.601562 19.664062 -15.273438 18.875 -15.015625 C 18.09375 -14.753906 16.957031 -14.492188 15.46875 -14.234375 C 13.707031 -13.941406 12.441406 -13.4375 11.671875 -12.71875 C 10.898438 -12.007812 10.515625 -11.003906 10.515625 -9.703125 C 10.515625 -8.316406 10.925781 -7.257812 11.75 -6.53125 C 12.570312 -5.8125 13.710938 -5.453125 15.171875 -5.453125 Z M 15.171875 -5.453125 "/></g></g></g><g fill="#e5e7eb" fill-opacity="1"><g transform="translate(375.21963, 559.761668)"><g><path d="M 22.296875 -7.703125 L 24.40625 -1.703125 C 23.53125 -0.972656 22.425781 -0.40625 21.09375 0 C 19.769531 0.40625 18.265625 0.609375 16.578125 0.609375 C 13.085938 0.609375 10.429688 -0.335938 8.609375 -2.234375 C 6.796875 -4.140625 5.890625 -6.910156 5.890625 -10.546875 L 5.890625 -25.90625 L 0.96875 -25.90625 L 0.96875 -32.34375 L 5.890625 -32.34375 L 5.890625 -38.640625 L 14 -39.96875 L 14 -32.34375 L 23.171875 -32.34375 L 23.171875 -25.90625 L 14 -25.90625 L 14 -11.140625 C 14 -9.535156 14.332031 -8.363281 15 -7.625 C 15.664062 -6.894531 16.632812 -6.53125 17.90625 -6.53125 C 19.34375 -6.53125 20.601562 -6.921875 21.6875 -7.703125 Z M 22.296875 -7.703125 "/></g></g></g><g fill="#e5e7eb" fill-opacity="1"><g transform="translate(400.322153, 559.761668)"><g><path d="M 8.703125 -36.1875 C 7.234375 -36.1875 6.039062 -36.628906 5.125 -37.515625 C 4.207031 -38.398438 3.75 -39.546875 3.75 -40.953125 C 3.75 -42.335938 4.207031 -43.472656 5.125 -44.359375 C 6.039062 -45.253906 7.234375 -45.703125 8.703125 -45.703125 C 9.679688 -45.703125 10.550781 -45.492188 11.3125 -45.078125 C 12.070312 -44.671875 12.660156 -44.109375 13.078125 -43.390625 C 13.503906 -42.679688 13.71875 -41.867188 13.71875 -40.953125 C 13.71875 -40.035156 13.503906 -39.210938 13.078125 -38.484375 C 12.660156 -37.765625 12.070312 -37.203125 11.3125 -36.796875 C 10.550781 -36.390625 9.679688 -36.1875 8.703125 -36.1875 Z M 4.65625 0 L 4.65625 -32.3125 L 12.78125 -32.3125 L 12.78125 0 Z M 4.65625 0 "/></g></g></g><g fill="#e5e7eb" fill-opacity="1"><g transform="translate(417.721108, 559.761668)"><g><path d="M 22.234375 0 L 12.5625 0 L 0.609375 -32.3125 L 9.109375 -32.3125 L 17.140625 -9.28125 L 17.8125 -9.28125 L 25.875 -32.3125 L 34.15625 -32.3125 Z M 22.234375 0 "/></g></g></g><g fill="#e5e7eb" fill-opacity="1"><g transform="translate(452.460426, 559.761668)"><g><path d="M 31.9375 -14.328125 L 11.15625 -14.328125 C 11.394531 -11.515625 12.195312 -9.46875 13.5625 -8.1875 C 14.925781 -6.90625 16.789062 -6.265625 19.15625 -6.265625 C 21.007812 -6.265625 22.515625 -6.609375 23.671875 -7.296875 C 24.828125 -7.992188 25.753906 -9.046875 26.453125 -10.453125 L 27.078125 -10.453125 L 32.46875 -7 C 31.40625 -4.738281 29.8125 -2.90625 27.6875 -1.5 C 25.5625 -0.09375 22.71875 0.609375 19.15625 0.609375 C 15.820312 0.609375 12.9375 -0.0195312 10.5 -1.28125 C 8.070312 -2.550781 6.195312 -4.441406 4.875 -6.953125 C 3.5625 -9.460938 2.90625 -12.523438 2.90625 -16.140625 C 2.90625 -19.816406 3.597656 -22.910156 4.984375 -25.421875 C 6.367188 -27.941406 8.242188 -29.820312 10.609375 -31.0625 C 12.972656 -32.3125 15.628906 -32.9375 18.578125 -32.9375 C 23.148438 -32.9375 26.648438 -31.722656 29.078125 -29.296875 C 31.503906 -26.878906 32.71875 -23.328125 32.71875 -18.640625 C 32.71875 -16.929688 32.660156 -15.609375 32.546875 -14.671875 Z M 24.96875 -19.578125 C 24.882812 -22.035156 24.3125 -23.820312 23.25 -24.9375 C 22.1875 -26.0625 20.628906 -26.625 18.578125 -26.625 C 14.472656 -26.625 12.0625 -24.273438 11.34375 -19.578125 Z M 24.96875 -19.578125 "/></g></g></g><path fill="#e5e7eb" d="M 470.046875 174.699219 C 464.585938 172.816406 458.917969 171.035156 453.0625 169.351562 C 454.03125 165.433594 454.917969 161.570312 455.703125 157.769531 C 468.542969 95.398438 460.152344 45.148438 431.441406 28.605469 C 403.902344 12.742188 358.886719 29.28125 313.414062 68.824219 C 309.046875 72.625 304.65625 76.652344 300.285156 80.871094 C 297.359375 78.078125 294.453125 75.382812 291.546875 72.800781 C 243.890625 30.523438 196.125 12.703125 167.445312 29.292969 C 139.941406 45.203125 131.800781 92.441406 143.375 151.554688 C 144.492188 157.265625 145.800781 163.097656 147.273438 169.023438 C 140.515625 170.941406 133.992188 172.984375 127.746094 175.160156 C 71.878906 194.625 36.203125 225.128906 36.203125 256.773438 C 36.203125 289.441406 74.503906 322.234375 132.691406 342.113281 C 137.28125 343.679688 142.046875 345.160156 146.957031 346.5625 C 145.363281 352.96875 143.980469 359.25 142.8125 365.386719 C 131.777344 423.476562 140.398438 469.59375 167.824219 485.394531 C 196.15625 501.726562 243.703125 484.941406 290 444.503906 C 293.667969 441.3125 297.335938 437.914062 301.007812 434.371094 C 305.789062 438.945312 310.550781 443.289062 315.269531 447.367188 C 360.121094 485.929688 404.417969 501.5 431.8125 485.660156 C 460.113281 469.285156 469.324219 419.726562 457.371094 359.457031 C 456.464844 354.84375 455.390625 350.144531 454.21875 345.367188 C 457.554688 344.378906 460.832031 343.347656 464.027344 342.296875 C 524.527344 322.253906 563.875 289.894531 563.875 256.773438 C 563.875 225.015625 527.039062 194.304688 470.046875 174.699219 Z M 456.9375 320.917969 C 454.050781 321.863281 451.085938 322.792969 448.074219 323.675781 C 441.398438 302.5625 432.390625 280.089844 421.339844 256.878906 C 431.875 234.21875 440.53125 212.042969 447.023438 191.054688 C 452.425781 192.617188 457.660156 194.261719 462.710938 195.996094 C 511.539062 212.796875 541.324219 237.640625 541.324219 256.773438 C 541.324219 277.144531 509.167969 303.613281 456.9375 320.917969 Z M 435.253906 363.824219 C 440.550781 390.476562 441.292969 414.578125 437.789062 433.425781 C 434.65625 450.355469 428.328125 461.644531 420.515625 466.15625 C 403.882812 475.773438 368.328125 463.269531 329.988281 430.292969 C 325.578125 426.503906 321.144531 422.464844 316.714844 418.203125 C 331.574219 401.949219 346.4375 383.0625 360.945312 362.070312 C 386.445312 359.828125 410.539062 356.121094 432.410156 351.074219 C 433.480469 355.417969 434.429688 359.664062 435.253906 363.824219 Z M 216.105469 464.484375 C 199.859375 470.234375 186.917969 470.398438 179.097656 465.886719 C 162.453125 456.289062 155.53125 419.253906 164.96875 369.589844 C 166.050781 363.90625 167.339844 358.054688 168.824219 352.082031 C 190.4375 356.859375 214.363281 360.300781 239.929688 362.359375 C 254.535156 382.898438 269.828125 401.765625 285.226562 418.285156 C 281.867188 421.539062 278.507812 424.628906 275.167969 427.53125 C 254.699219 445.433594 234.1875 458.121094 216.105469 464.484375 Z M 139.992188 320.792969 C 114.261719 311.996094 93.011719 300.585938 78.445312 288.105469 C 65.359375 276.917969 58.75 265.796875 58.75 256.773438 C 58.75 237.578125 87.394531 213.078125 135.171875 196.433594 C 140.972656 194.410156 147.039062 192.507812 153.335938 190.71875 C 159.941406 212.183594 168.601562 234.632812 179.054688 257.308594 C 168.464844 280.339844 159.679688 303.140625 153.011719 324.871094 C 148.523438 323.574219 144.175781 322.214844 139.992188 320.792969 Z M 165.503906 147.230469 C 155.585938 96.582031 162.171875 58.378906 178.746094 48.789062 C 196.398438 38.578125 235.433594 53.140625 276.570312 89.648438 C 279.207031 91.980469 281.847656 94.421875 284.503906 96.949219 C 269.167969 113.402344 254.019531 132.128906 239.546875 152.539062 C 214.726562 154.839844 190.972656 158.53125 169.132812 163.476562 C 167.757812 157.953125 166.542969 152.53125 165.503906 147.230469 Z M 393.105469 203.394531 C 387.890625 194.382812 382.53125 185.582031 377.066406 177.023438 C 393.90625 179.148438 410.027344 181.972656 425.175781 185.429688 C 420.640625 199.992188 414.972656 215.222656 408.296875 230.839844 C 403.511719 221.753906 398.441406 212.597656 393.105469 203.394531 Z M 300.289062 113.046875 C 310.695312 124.304688 321.105469 136.871094 331.351562 150.507812 C 321.023438 150.023438 310.574219 149.769531 300.039062 149.769531 C 289.609375 149.769531 279.242188 150.015625 268.976562 150.496094 C 279.222656 136.984375 289.734375 124.433594 300.289062 113.046875 Z M 206.878906 203.550781 C 201.664062 212.585938 196.691406 221.695312 191.980469 230.820312 C 185.417969 215.261719 179.800781 199.960938 175.214844 185.191406 C 190.269531 181.824219 206.324219 179.070312 223.054688 176.984375 C 217.511719 185.621094 212.105469 194.484375 206.878906 203.546875 Z M 223.535156 338.15625 C 206.25 336.242188 189.953125 333.625 174.902344 330.351562 C 179.5625 315.3125 185.300781 299.699219 192.007812 283.800781 C 196.730469 292.925781 201.71875 302.027344 206.964844 311.089844 L 206.96875 311.089844 C 212.3125 320.320312 217.851562 329.339844 223.535156 338.15625 Z M 300.90625 402.074219 C 290.230469 390.558594 279.570312 377.808594 269.164062 364.113281 C 279.261719 364.503906 289.570312 364.707031 300.039062 364.707031 C 310.800781 364.707031 321.4375 364.460938 331.886719 364.007812 C 321.621094 377.953125 311.234375 390.722656 300.90625 402.074219 Z M 408.5 282.996094 C 415.550781 299.0625 421.507812 314.59375 426.226562 329.382812 C 410.933594 332.863281 394.402344 335.664062 377.007812 337.765625 C 382.488281 329.09375 387.890625 320.132812 393.207031 310.925781 C 398.585938 301.617188 403.679688 292.285156 408.5 282.996094 Z M 373.667969 299.679688 C 365.421875 313.976562 356.949219 327.613281 348.355469 340.484375 C 332.710938 341.597656 316.53125 342.175781 300.039062 342.175781 C 283.613281 342.175781 267.636719 341.679688 252.261719 340.671875 C 243.316406 327.632812 234.667969 313.953125 226.472656 299.804688 L 226.476562 299.804688 C 218.300781 285.695312 210.777344 271.460938 203.960938 257.308594 C 210.773438 243.136719 218.28125 228.882812 226.40625 214.800781 L 226.40625 214.804688 C 234.554688 200.683594 243.128906 187.066406 251.992188 174.101562 C 267.679688 172.914062 283.777344 172.296875 300.039062 172.296875 C 316.386719 172.296875 332.484375 172.917969 348.167969 174.113281 C 356.910156 186.984375 365.421875 200.558594 373.605469 214.683594 C 381.871094 228.96875 389.476562 243.117188 396.339844 257 C 389.496094 271.109375 381.910156 285.40625 373.667969 299.679688 Z M 420.167969 48.113281 C 437.851562 58.300781 444.71875 99.367188 433.605469 153.21875 C 432.90625 156.65625 432.101562 160.15625 431.238281 163.703125 C 409.347656 158.652344 385.582031 154.898438 360.703125 152.5625 C 346.191406 131.929688 331.164062 113.171875 316.078125 96.933594 C 320.136719 93.035156 324.199219 89.316406 328.21875 85.808594 C 367.175781 51.933594 403.597656 38.554688 420.167969 48.113281 Z M 300.039062 209.675781 C 326.050781 209.675781 347.160156 230.753906 347.160156 256.769531 C 347.160156 282.761719 326.050781 303.855469 300.039062 303.855469 C 274.027344 303.855469 252.921875 282.761719 252.921875 256.769531 C 252.921875 230.753906 274.027344 209.675781 300.039062 209.675781 Z M 300.039062 209.675781 " fill-opacity="1" fill-rule="nonzero"/></svg>