<svg xmlns="http://www.w3.org/2000/svg" xmlns:xlink="http://www.w3.org/1999/xlink" width="800" zoomAndPan="magnify" viewBox="0 0 600 599.999999" height="800" preserveAspectRatio="xMidYMid meet" version="1.0"><defs><clipPath id="e946ca3873"><path d="M 12.03125 112 L 588.03125 112 L 588.03125 524 L 12.03125 524 Z M 12.03125 112 " clip-rule="nonzero"/></clipPath></defs><g clip-path="url(#e946ca3873)"><path fill="#e5e7eb" d="M 457.414062 147.335938 C 395.671875 147.632812 348.746094 188.464844 331.179688 253.535156 C 301.703125 208.175781 278.710938 156.292969 265.523438 112.488281 L 200.542969 112.792969 L 201.445312 285.035156 C 201.453125 287.058594 201.363281 289.078125 201.175781 291.089844 C 200.988281 293.105469 200.699219 295.101562 200.316406 297.089844 C 199.929688 299.074219 199.449219 301.035156 198.871094 302.972656 C 198.292969 304.910156 197.621094 306.816406 196.855469 308.6875 C 196.089844 310.5625 195.234375 312.390625 194.289062 314.179688 C 193.347656 315.96875 192.316406 317.703125 191.199219 319.390625 C 190.085938 321.078125 188.890625 322.707031 187.613281 324.277344 C 186.335938 325.84375 184.988281 327.347656 183.566406 328.785156 C 182.140625 330.222656 180.652344 331.585938 179.09375 332.875 C 177.539062 334.167969 175.921875 335.378906 174.246094 336.507812 C 172.566406 337.640625 170.839844 338.6875 169.0625 339.648438 C 167.28125 340.609375 165.460938 341.484375 163.59375 342.265625 C 161.730469 343.046875 159.832031 343.738281 157.898438 344.332031 C 155.96875 344.929688 154.011719 345.429688 152.027344 345.835938 C 150.046875 346.238281 148.050781 346.542969 146.039062 346.75 C 144.027344 346.960938 142.011719 347.066406 139.988281 347.078125 C 137.964844 347.085938 135.949219 346.996094 133.933594 346.808594 C 131.921875 346.621094 129.921875 346.332031 127.933594 345.949219 C 125.949219 345.5625 123.988281 345.082031 122.050781 344.503906 C 120.113281 343.925781 118.207031 343.253906 116.335938 342.488281 C 114.464844 341.722656 112.632812 340.871094 110.84375 339.925781 C 109.058594 338.980469 107.320312 337.949219 105.632812 336.832031 C 103.945312 335.71875 102.316406 334.523438 100.746094 333.246094 C 99.179688 331.972656 97.675781 330.621094 96.238281 329.199219 C 94.800781 327.773438 93.4375 326.285156 92.148438 324.726562 C 90.859375 323.171875 89.648438 321.554688 88.515625 319.878906 C 87.382812 318.203125 86.335938 316.472656 85.375 314.695312 C 84.414062 312.914062 83.542969 311.09375 82.757812 309.230469 C 81.976562 307.363281 81.285156 305.464844 80.691406 303.535156 C 80.09375 301.601562 79.59375 299.644531 79.191406 297.660156 C 78.785156 295.679688 78.480469 293.683594 78.273438 291.671875 C 78.0625 289.660156 77.957031 287.644531 77.945312 285.621094 L 77.046875 113.378906 L 12.03125 113.695312 L 12.929688 285.945312 C 13.183594 357.421875 70.296875 414.058594 140.191406 413.699219 C 210.085938 413.339844 266.683594 356.226562 266.371094 284.730469 L 266.234375 255.480469 C 279.339844 281.398438 295.71875 308.941406 313.71875 333.238281 L 273.984375 523.535156 L 340.585938 523.230469 L 369.203125 384.972656 C 395.269531 401.109375 424.554688 410.710938 458.664062 410.550781 C 530.160156 410.234375 588.390625 351.484375 588.03125 276.71875 C 587.707031 205.207031 528.917969 147.003906 457.421875 147.328125 Z M 458.339844 343.949219 C 432.347656 344.066406 406.300781 332.824219 385.097656 315.03125 L 391.46875 288.933594 L 391.46875 287.296875 C 396.222656 259.628906 410.605469 212.449219 459.347656 212.234375 C 460.410156 212.234375 461.472656 212.257812 462.535156 212.308594 C 463.597656 212.355469 464.65625 212.433594 465.714844 212.535156 C 466.773438 212.636719 467.828125 212.765625 468.878906 212.917969 C 469.933594 213.070312 470.980469 213.25 472.023438 213.457031 C 473.066406 213.660156 474.101562 213.890625 475.132812 214.144531 C 476.167969 214.402344 477.191406 214.679688 478.210938 214.988281 C 479.226562 215.292969 480.238281 215.621094 481.238281 215.976562 C 482.242188 216.332031 483.234375 216.710938 484.21875 217.117188 C 485.199219 217.519531 486.171875 217.945312 487.136719 218.398438 C 488.097656 218.847656 489.050781 219.324219 489.988281 219.820312 C 490.929688 220.320312 491.855469 220.839844 492.769531 221.382812 C 493.683594 221.925781 494.582031 222.488281 495.46875 223.078125 C 496.355469 223.664062 497.226562 224.273438 498.082031 224.902344 C 498.9375 225.53125 499.78125 226.179688 500.605469 226.851562 C 501.429688 227.523438 502.238281 228.214844 503.027344 228.921875 C 503.820312 229.632812 504.589844 230.363281 505.347656 231.109375 C 506.101562 231.859375 506.839844 232.625 507.554688 233.410156 C 508.273438 234.191406 508.972656 234.992188 509.652344 235.8125 C 510.328125 236.628906 510.988281 237.464844 511.625 238.316406 C 512.261719 239.164062 512.878906 240.03125 513.476562 240.910156 C 514.070312 241.792969 514.644531 242.6875 515.195312 243.59375 C 515.746094 244.503906 516.277344 245.425781 516.78125 246.359375 C 517.289062 247.292969 517.773438 248.242188 518.234375 249.199219 C 518.695312 250.15625 519.128906 251.125 519.542969 252.105469 C 519.957031 253.085938 520.34375 254.074219 520.710938 255.074219 C 521.074219 256.070312 521.414062 257.078125 521.730469 258.09375 C 522.042969 259.109375 522.335938 260.128906 522.601562 261.160156 C 522.863281 262.1875 523.105469 263.222656 523.320312 264.265625 C 523.535156 265.304688 523.722656 266.351562 523.886719 267.402344 C 524.050781 268.453125 524.1875 269.507812 524.300781 270.5625 C 524.414062 271.621094 524.5 272.679688 524.558594 273.742188 C 524.617188 274.800781 524.652344 275.863281 524.660156 276.925781 C 523.195312 314.304688 492.46875 343.707031 458.332031 343.859375 Z M 458.339844 343.949219 " fill-opacity="1" fill-rule="nonzero"/></g></svg>