<svg xmlns="http://www.w3.org/2000/svg" xmlns:xlink="http://www.w3.org/1999/xlink" width="800" zoomAndPan="magnify" viewBox="0 0 600 599.999999" height="800" preserveAspectRatio="xMidYMid meet" version="1.0"><defs><clipPath id="7afeb00665"><path d="M 41 131.78125 L 558 131.78125 L 558 308 L 41 308 Z M 41 131.78125 " clip-rule="nonzero"/></clipPath><clipPath id="7c6d9d4013"><path d="M 17 341 L 581 341 L 581 468.53125 L 17 468.53125 Z M 17 341 " clip-rule="nonzero"/></clipPath></defs><g clip-path="url(#7afeb00665)"><path fill="#e5e7eb" d="M 176.425781 254.058594 C 176.425781 260.992188 177.171875 266.609375 178.484375 270.730469 C 179.980469 274.851562 181.847656 279.347656 184.46875 284.21875 C 185.40625 285.714844 185.777344 287.214844 185.777344 288.527344 C 185.777344 290.398438 184.65625 292.273438 182.222656 294.144531 L 170.4375 302.011719 C 168.753906 303.136719 167.070312 303.699219 165.574219 303.699219 C 163.703125 303.699219 161.832031 302.761719 159.960938 301.074219 C 157.34375 298.265625 155.097656 295.269531 153.226562 292.273438 C 151.355469 289.085938 149.484375 285.527344 147.425781 281.222656 C 132.835938 298.453125 114.5 307.070312 92.425781 307.070312 C 76.710938 307.070312 64.175781 302.574219 55.007812 293.585938 C 45.839844 284.59375 41.164062 272.605469 41.164062 257.621094 C 41.164062 241.699219 46.777344 228.773438 58.191406 219.035156 C 69.601562 209.296875 84.753906 204.425781 104.023438 204.425781 C 110.386719 204.425781 116.933594 204.984375 123.855469 205.921875 C 130.777344 206.859375 137.886719 208.359375 145.371094 210.042969 L 145.371094 196.371094 C 145.371094 182.132812 142.375 172.207031 136.574219 166.402344 C 130.589844 160.59375 120.484375 157.785156 106.082031 157.785156 C 99.53125 157.785156 92.800781 158.535156 85.875 160.222656 C 78.957031 161.90625 72.21875 163.964844 65.671875 166.589844 C 62.679688 167.898438 60.433594 168.648438 59.125 169.023438 C 57.816406 169.398438 56.878906 169.585938 56.128906 169.585938 C 53.511719 169.585938 52.203125 167.710938 52.203125 163.777344 L 52.203125 154.601562 C 52.203125 151.605469 52.574219 149.355469 53.511719 148.046875 C 54.445312 146.734375 56.128906 145.421875 58.75 144.113281 C 65.296875 140.738281 73.15625 137.929688 82.324219 135.683594 C 91.488281 133.246094 101.21875 132.125 111.507812 132.125 C 133.769531 132.125 150.046875 137.179688 160.523438 147.296875 C 170.8125 157.410156 176.050781 172.769531 176.050781 193.375 L 176.050781 254.0625 L 176.425781 254.0625 Z M 100.46875 282.53125 C 106.644531 282.53125 113.003906 281.410156 119.738281 279.160156 C 126.472656 276.914062 132.460938 272.792969 137.511719 267.171875 C 140.503906 263.613281 142.75 259.679688 143.871094 255.183594 C 144.996094 250.691406 145.742188 245.257812 145.742188 238.890625 L 145.742188 231.023438 C 140.316406 229.710938 134.519531 228.585938 128.53125 227.839844 C 122.546875 227.089844 116.746094 226.714844 110.945312 226.714844 C 98.410156 226.714844 89.242188 229.148438 83.070312 234.207031 C 76.894531 239.265625 73.902344 246.382812 73.902344 255.746094 C 73.902344 264.550781 76.148438 271.105469 80.824219 275.601562 C 85.316406 280.285156 91.863281 282.53125 100.46875 282.53125 Z M 250.707031 302.761719 C 247.332031 302.761719 245.078125 302.199219 243.578125 300.886719 C 242.101562 299.765625 240.777344 297.140625 239.648438 293.585938 L 195.695312 148.796875 C 194.574219 145.046875 194.007812 142.613281 194.007812 141.300781 C 194.007812 138.304688 195.507812 136.621094 198.5 136.621094 L 216.835938 136.621094 C 220.390625 136.621094 222.820312 137.179688 224.128906 138.492188 C 225.625 139.617188 226.75 142.238281 227.871094 145.796875 L 259.292969 269.796875 L 288.492188 145.796875 C 289.417969 142.050781 290.542969 139.617188 292.042969 138.492188 C 293.542969 137.371094 296.148438 136.621094 299.527344 136.621094 L 314.488281 136.621094 C 318.042969 136.621094 320.46875 137.183594 321.96875 138.492188 C 323.472656 139.617188 324.773438 142.238281 325.523438 145.796875 L 355.097656 271.296875 L 387.453125 145.796875 C 388.578125 142.054688 389.878906 139.617188 391.203125 138.492188 C 392.683594 137.371094 395.132812 136.621094 398.488281 136.621094 L 415.898438 136.621094 C 418.878906 136.621094 420.554688 138.121094 420.554688 141.304688 C 420.554688 142.242188 420.378906 143.175781 420.203125 144.300781 C 420.003906 145.425781 419.628906 146.921875 418.878906 148.984375 L 373.789062 293.773438 C 372.664062 297.519531 371.363281 299.957031 369.863281 301.078125 C 368.363281 302.203125 365.933594 302.953125 362.753906 302.953125 L 346.667969 302.953125 C 343.113281 302.953125 340.6875 302.390625 339.183594 301.078125 C 337.683594 299.765625 336.382812 297.332031 335.632812 293.585938 L 306.632812 172.773438 L 277.832031 293.398438 C 276.882812 297.144531 275.757812 299.578125 274.277344 300.890625 C 272.777344 302.203125 270.152344 302.761719 266.796875 302.761719 Z M 491.09375 307.820312 C 481.359375 307.820312 471.648438 306.695312 462.289062 304.445312 C 452.933594 302.199219 445.628906 299.765625 440.773438 296.953125 C 437.769531 295.269531 435.71875 293.394531 434.96875 291.710938 C 434.21875 290.023438 433.84375 288.152344 433.84375 286.464844 L 433.84375 276.914062 C 433.84375 272.980469 435.34375 271.105469 438.144531 271.105469 C 439.273438 271.105469 440.398438 271.292969 441.523438 271.667969 C 442.648438 272.042969 444.324219 272.792969 446.203125 273.539062 C 452.558594 276.351562 459.488281 278.597656 466.769531 280.097656 C 474.253906 281.59375 481.558594 282.34375 489.039062 282.34375 C 500.824219 282.34375 509.984375 280.285156 516.363281 276.164062 C 522.71875 272.042969 526.074219 266.050781 526.074219 258.371094 C 526.074219 253.125 524.394531 248.816406 521.039062 245.257812 C 517.664062 241.699219 511.308594 238.515625 502.125 235.515625 L 475.003906 227.089844 C 461.339844 222.78125 451.253906 216.414062 445.078125 207.984375 C 438.898438 199.742188 435.71875 190.5625 435.71875 180.824219 C 435.71875 172.957031 437.394531 166.027344 440.773438 160.035156 C 444.148438 154.039062 448.628906 148.792969 454.234375 144.671875 C 459.863281 140.367188 466.21875 137.179688 473.699219 134.933594 C 481.183594 132.6875 489.039062 131.75 497.269531 131.75 C 501.375 131.75 505.679688 131.9375 509.808594 132.5 C 514.109375 133.058594 518.039062 133.808594 521.96875 134.558594 C 525.695312 135.496094 529.25 136.433594 532.628906 137.554688 C 536.003906 138.679688 538.609375 139.804688 540.484375 140.925781 C 543.109375 142.425781 544.984375 143.925781 546.089844 145.609375 C 547.214844 147.109375 547.789062 149.167969 547.789062 151.792969 L 547.789062 160.59375 C 547.789062 164.527344 546.289062 166.589844 543.484375 166.589844 C 541.984375 166.589844 539.558594 165.839844 536.378906 164.339844 C 525.695312 159.46875 513.734375 157.035156 500.449219 157.035156 C 489.789062 157.035156 481.359375 158.722656 475.578125 162.28125 C 469.773438 165.839844 466.769531 171.273438 466.769531 178.949219 C 466.769531 184.195312 468.648438 188.691406 472.398438 192.25 C 476.128906 195.808594 483.058594 199.367188 492.96875 202.550781 L 519.539062 210.980469 C 533.003906 215.289062 542.734375 221.28125 548.539062 228.960938 C 554.320312 236.640625 557.148438 245.445312 557.148438 255.183594 C 557.148438 263.238281 555.449219 270.542969 552.269531 276.914062 C 548.914062 283.28125 544.414062 288.898438 538.609375 293.394531 C 532.824219 298.078125 525.894531 301.449219 517.839844 303.886719 C 509.433594 306.507812 500.648438 307.820312 491.089844 307.820312 Z M 491.09375 307.820312 " fill-opacity="1" fill-rule="nonzero"/></g><g clip-path="url(#7c6d9d4013)"><path fill="#e5e7eb" d="M 526.449219 398.839844 C 464.894531 444.359375 375.488281 468.53125 298.597656 468.53125 C 190.828125 468.53125 93.734375 428.625 20.410156 362.316406 C 14.597656 357.078125 19.835938 349.964844 26.757812 354.074219 C 106.082031 400.167969 203.925781 428.074219 305.125 428.074219 C 373.410156 428.074219 448.449219 413.84375 517.460938 384.609375 C 527.765625 379.925781 536.550781 391.351562 526.441406 398.839844 Z M 552.09375 369.628906 C 544.234375 359.507812 500.074219 364.769531 480.058594 367.199219 C 474.074219 367.949219 473.128906 362.691406 478.554688 358.757812 C 513.734375 334.039062 571.535156 341.160156 578.269531 349.398438 C 585.019531 357.828125 576.414062 415.699219 543.484375 443.429688 C 538.433594 447.738281 533.554688 445.488281 535.804688 439.875 C 543.285156 421.335938 559.949219 379.550781 552.09375 369.628906 Z M 552.09375 369.628906 " fill-opacity="1" fill-rule="nonzero"/></g></svg>