<svg xmlns="http://www.w3.org/2000/svg" xmlns:xlink="http://www.w3.org/1999/xlink" width="800" zoomAndPan="magnify" viewBox="0 0 600 599.999999" height="800" preserveAspectRatio="xMidYMid meet" version="1.0"><path fill="#e5e7eb" d="M 568.292969 275.066406 L 324.765625 31.5625 C 310.757812 17.53125 288.011719 17.53125 273.980469 31.558594 L 223.398438 82.128906 L 287.550781 146.28125 C 302.457031 141.242188 319.558594 144.625 331.433594 156.507812 C 343.375 168.464844 346.730469 185.707031 341.566406 200.664062 L 403.402344 262.496094 C 418.347656 257.332031 435.601562 260.667969 447.566406 272.628906 C 464.253906 289.320312 464.253906 316.378906 447.566406 333.070312 C 430.855469 349.78125 403.816406 349.78125 387.101562 333.070312 C 374.53125 320.496094 371.4375 302.066406 377.800781 286.59375 L 320.148438 228.933594 L 320.125 380.65625 C 324.199219 382.679688 328.035156 385.359375 331.433594 388.738281 C 348.125 405.429688 348.125 432.488281 331.433594 449.199219 C 314.746094 465.890625 287.660156 465.890625 270.992188 449.199219 C 254.304688 432.488281 254.304688 405.429688 270.992188 388.738281 C 275.113281 384.621094 279.882812 381.503906 284.980469 379.414062 L 284.980469 226.277344 C 279.882812 224.195312 275.132812 221.097656 270.992188 216.949219 C 258.335938 204.316406 255.304688 185.753906 261.777344 170.222656 L 198.550781 106.976562 L 31.566406 273.957031 C 17.53125 287.988281 17.53125 310.738281 31.566406 324.769531 L 275.09375 568.292969 C 289.125 582.304688 311.871094 582.304688 325.902344 568.292969 L 568.296875 325.902344 C 582.328125 311.871094 582.328125 289.101562 568.296875 275.070312 " fill-opacity="1" fill-rule="nonzero"/></svg>