<svg xmlns="http://www.w3.org/2000/svg" xmlns:xlink="http://www.w3.org/1999/xlink" width="800" zoomAndPan="magnify" viewBox="0 0 600 599.999999" height="800" preserveAspectRatio="xMidYMid meet" version="1.0"><defs><clipPath id="b45d85c0fc"><path d="M 7.613281 123.652344 L 592.613281 123.652344 L 592.613281 476.152344 L 7.613281 476.152344 Z M 7.613281 123.652344 " clip-rule="nonzero"/></clipPath></defs><g clip-path="url(#b45d85c0fc)"><path fill="#e5e7eb" d="M 145.699219 215.585938 L 256 215.585938 L 256 224.34375 L 155.804688 224.34375 L 155.804688 290.261719 L 250.027344 290.261719 L 250.027344 299.023438 L 155.804688 299.023438 L 155.804688 371.398438 L 257.144531 371.398438 L 257.144531 380.160156 L 145.699219 380.160156 Z M 265.882812 215.585938 L 277.601562 215.585938 L 329.535156 287.957031 L 382.613281 215.585938 L 454.8125 123.652344 L 336.195312 295.566406 L 397.328125 380.160156 L 385.140625 380.160156 L 329.535156 303.167969 L 273.695312 380.160156 L 261.746094 380.160156 L 323.324219 295.566406 Z M 401.691406 224.34375 L 401.691406 215.585938 L 527.390625 215.585938 L 527.390625 224.34375 L 469.480469 224.34375 L 469.480469 380.15625 L 459.371094 380.15625 L 459.371094 224.34375 Z M 7.707031 215.585938 L 20.34375 215.585938 L 194.625 476.132812 L 122.609375 380.160156 L 18.28125 228.035156 L 17.824219 380.160156 L 7.710938 380.160156 L 7.710938 215.585938 Z M 526.363281 368.761719 C 524.304688 368.761719 522.753906 367.152344 522.753906 365.085938 C 522.753906 363.023438 524.304688 361.425781 526.363281 361.425781 C 528.453125 361.425781 529.984375 363.023438 529.984375 365.085938 C 529.984375 367.152344 528.453125 368.761719 526.363281 368.761719 Z M 536.300781 359.109375 L 541.714844 359.109375 C 541.78125 362.039062 543.929688 364.003906 547.070312 364.003906 C 550.589844 364.003906 552.574219 361.890625 552.574219 357.933594 L 552.574219 332.839844 L 558.09375 332.839844 L 558.09375 357.957031 C 558.09375 365.085938 553.957031 369.195312 547.128906 369.195312 C 540.707031 369.195312 536.300781 365.214844 536.300781 359.109375 Z M 565.300781 358.789062 L 570.757812 358.789062 C 571.214844 362.167969 574.519531 364.300781 579.269531 364.300781 C 583.691406 364.300781 586.933594 362.019531 586.933594 358.867188 C 586.933594 356.164062 584.867188 354.53125 580.171875 353.425781 L 575.601562 352.316406 C 569.183594 350.824219 566.257812 347.71875 566.257812 342.503906 C 566.257812 336.183594 571.421875 331.984375 579.167969 331.984375 C 586.375 331.984375 591.628906 336.183594 591.949219 342.160156 L 586.589844 342.160156 C 586.078125 338.886719 583.222656 336.84375 579.085938 336.84375 C 574.734375 336.84375 571.832031 338.945312 571.832031 342.140625 C 571.832031 344.671875 573.707031 346.121094 578.332031 347.207031 L 582.238281 348.164062 C 589.515625 349.863281 592.519531 352.820312 592.519531 358.148438 C 592.519531 364.9375 587.253906 369.195312 578.847656 369.195312 C 570.976562 369.195312 565.6875 365.144531 565.300781 358.789062 Z M 565.300781 358.789062 " fill-opacity="1" fill-rule="nonzero"/></g></svg>