<svg xmlns="http://www.w3.org/2000/svg" xmlns:xlink="http://www.w3.org/1999/xlink" width="800" zoomAndPan="magnify" viewBox="0 0 600 599.999999" height="800" preserveAspectRatio="xMidYMid meet" version="1.0"><rect x="-60" width="720" fill="none" y="-60" height="719.999999" fill-opacity="1"/><rect x="-60" width="720" fill="none" y="-60" height="719.999999" fill-opacity="1"/><path fill="#e5e7eb" d="M 275.578125 15.964844 C 290.121094 7.730469 308.667969 7.695312 322.847656 15.964844 L 540.003906 138.355469 C 553.585938 145.992188 562.679688 161.132812 562.550781 176.785156 L 562.550781 422.179688 C 562.640625 438.484375 552.660156 453.957031 538.332031 461.445312 L 322.339844 583.269531 C 320.5 584.285156 318.601562 585.175781 316.644531 585.9375 C 314.6875 586.703125 312.6875 587.332031 310.648438 587.828125 C 308.605469 588.324219 306.539062 588.683594 304.453125 588.902344 C 302.363281 589.125 300.269531 589.207031 298.167969 589.148438 C 296.066406 589.089844 293.980469 588.894531 291.90625 588.558594 C 289.832031 588.21875 287.792969 587.75 285.78125 587.140625 C 283.769531 586.53125 281.808594 585.792969 279.894531 584.921875 C 277.984375 584.050781 276.136719 583.058594 274.359375 581.945312 L 209.542969 544.496094 C 205.125 541.863281 200.160156 539.773438 197.03125 535.5 C 199.796875 531.792969 204.707031 531.320312 208.707031 529.683594 C 217.722656 526.8125 225.976562 522.410156 234.269531 517.757812 C 236.359375 516.304688 238.921875 516.851562 240.921875 518.160156 L 296.195312 550.113281 C 300.140625 552.386719 304.140625 549.386719 307.519531 547.480469 L 519.605469 427.816406 C 522.222656 426.542969 523.679688 423.78125 523.460938 420.910156 L 523.460938 177.875 C 523.75 174.601562 521.878906 171.621094 518.914062 170.292969 L 303.464844 48.996094 C 302.847656 48.566406 302.175781 48.238281 301.453125 48.011719 C 300.734375 47.789062 299.996094 47.671875 299.242188 47.671875 C 298.488281 47.671875 297.75 47.78125 297.027344 48.003906 C 296.308594 48.226562 295.636719 48.550781 295.011719 48.976562 L 79.871094 170.53125 C 76.964844 171.859375 74.964844 174.800781 75.328125 178.074219 L 75.328125 421.109375 C 75.074219 423.980469 76.601562 426.6875 79.234375 427.925781 L 136.726562 460.371094 C 147.523438 466.1875 160.78125 469.460938 172.671875 465.1875 C 173.964844 464.703125 175.210938 464.121094 176.417969 463.441406 C 177.621094 462.765625 178.769531 462 179.855469 461.148438 C 180.945312 460.296875 181.964844 459.367188 182.910156 458.363281 C 183.859375 457.355469 184.722656 456.285156 185.507812 455.148438 C 186.292969 454.007812 186.988281 452.816406 187.589844 451.574219 C 188.191406 450.332031 188.699219 449.050781 189.105469 447.730469 C 189.515625 446.410156 189.820312 445.066406 190.027344 443.699219 C 190.230469 442.332031 190.328125 440.957031 190.324219 439.578125 L 190.378906 197.996094 C 190.125 194.414062 193.507812 191.453125 196.980469 191.816406 L 224.613281 191.816406 C 228.25 191.726562 231.105469 195.578125 230.613281 199.179688 L 230.558594 442.285156 C 230.578125 463.878906 221.707031 487.367188 201.722656 497.964844 C 177.105469 510.6875 146.671875 508.015625 122.34375 495.78125 L 60.527344 461.609375 C 45.984375 454.335938 36.21875 438.632812 36.308594 422.34375 L 36.308594 176.945312 C 36.324219 174.960938 36.472656 172.988281 36.75 171.019531 C 37.027344 169.054688 37.433594 167.117188 37.972656 165.207031 C 38.507812 163.292969 39.167969 161.425781 39.953125 159.605469 C 40.738281 157.78125 41.640625 156.015625 42.664062 154.3125 C 43.683594 152.609375 44.8125 150.984375 46.046875 149.429688 C 47.285156 147.875 48.617188 146.414062 50.050781 145.039062 C 51.484375 143.664062 53 142.386719 54.601562 141.214844 C 56.203125 140.042969 57.875 138.980469 59.617188 138.027344 Z M 338.191406 186.074219 C 369.59375 184.253906 403.210938 184.871094 431.464844 200.34375 C 453.335938 212.195312 465.460938 237.058594 465.863281 261.382812 C 465.246094 264.652344 461.824219 266.472656 458.699219 266.234375 C 449.609375 266.21875 440.480469 266.363281 431.355469 266.179688 C 427.480469 266.328125 425.246094 262.761719 424.753906 259.347656 C 422.136719 247.710938 415.789062 236.207031 404.847656 230.589844 C 388.046875 222.171875 368.554688 222.589844 350.230469 222.773438 C 336.847656 223.5 322.464844 224.644531 311.140625 232.496094 C 302.414062 238.460938 299.792969 250.675781 302.902344 260.164062 C 305.8125 267.125 313.867188 269.363281 320.429688 271.433594 C 358.285156 281.324219 398.375 280.523438 435.519531 293.375 C 450.882812 298.683594 465.917969 309.007812 471.191406 325.09375 C 478.0625 346.652344 475.0625 372.429688 459.734375 389.734375 C 447.300781 403.984375 429.191406 411.546875 411.101562 415.945312 C 387.046875 421.308594 362.101562 421.4375 337.683594 419.035156 C 314.722656 416.417969 290.832031 410.382812 273.105469 394.75 C 257.941406 381.589844 250.558594 361.085938 251.285156 341.308594 C 251.46875 337.964844 254.796875 335.636719 258.011719 335.910156 L 285.285156 335.910156 C 288.957031 335.65625 291.648438 338.820312 291.832031 342.273438 C 293.523438 353.179688 297.683594 364.996094 307.359375 371.355469 C 326.011719 383.390625 349.410156 382.554688 370.757812 382.898438 C 388.445312 382.117188 408.300781 381.882812 422.753906 370.175781 C 430.390625 363.503906 432.625 352.359375 430.574219 342.761719 C 428.335938 334.65625 419.664062 330.894531 412.390625 328.222656 C 375.027344 316.40625 334.484375 320.695312 297.484375 307.316406 C 282.46875 302.007812 267.941406 291.976562 262.175781 276.542969 C 254.121094 254.730469 257.8125 227.699219 274.777344 210.976562 C 291.140625 194.34375 315.140625 187.925781 337.867188 185.636719 Z M 338.191406 186.074219 " fill-opacity="1" fill-rule="nonzero"/></svg>