<svg xmlns="http://www.w3.org/2000/svg" xmlns:xlink="http://www.w3.org/1999/xlink" width="800" zoomAndPan="magnify" viewBox="0 0 600 599.999999" height="800" preserveAspectRatio="xMidYMid meet" version="1.0"><defs><clipPath id="fb7e91c30a"><path d="M 8.375 9.96875 L 442 9.96875 L 442 443 L 8.375 443 Z M 8.375 9.96875 " clip-rule="nonzero"/></clipPath><clipPath id="be91890266"><path d="M 298.117188 9.902344 C 150.042969 9.902344 159.289062 74.050781 159.289062 74.050781 L 159.453125 140.507812 L 300.742188 140.507812 L 300.742188 160.460938 L 103.335938 160.460938 C 103.335938 160.460938 8.589844 149.726562 8.589844 298.976562 C 8.589844 448.238281 91.285156 442.945312 91.285156 442.945312 L 140.636719 442.945312 L 140.636719 373.675781 C 140.636719 373.675781 137.976562 291.058594 222.015625 291.058594 L 362.152344 291.058594 C 362.152344 291.058594 440.875 292.335938 440.875 215.042969 L 440.875 87.246094 C 440.875 87.246094 452.84375 9.902344 298.117188 9.902344 L 298.117188 9.90625 Z M 220.199219 54.59375 C 234.253906 54.59375 245.613281 65.945312 245.613281 79.988281 C 245.613281 94.03125 234.253906 105.382812 220.199219 105.382812 C 206.140625 105.382812 194.777344 94.03125 194.777344 79.988281 C 194.777344 65.945312 206.140625 54.59375 220.199219 54.59375 Z M 220.199219 54.59375 " clip-rule="nonzero"/></clipPath><clipPath id="3c08292230"><path d="M 159 156 L 591.875 156 L 591.875 589.71875 L 159 589.71875 Z M 159 156 " clip-rule="nonzero"/></clipPath><clipPath id="a6296563c3"><path d="M 302.320312 589.558594 C 450.375 589.558594 441.128906 525.398438 441.128906 525.398438 L 440.96875 458.9375 L 299.667969 458.9375 L 299.667969 438.996094 L 497.082031 438.996094 C 497.082031 438.996094 591.835938 449.71875 591.835938 300.480469 C 591.835938 151.222656 509.140625 156.515625 509.140625 156.515625 L 459.785156 156.515625 L 459.785156 225.773438 C 459.785156 225.773438 462.433594 308.398438 378.414062 308.398438 L 238.257812 308.398438 C 238.257812 308.398438 159.535156 307.121094 159.535156 384.421875 L 159.535156 512.210938 C 159.535156 512.210938 147.578125 589.558594 302.320312 589.558594 Z M 380.21875 544.859375 C 366.171875 544.859375 354.800781 533.5 354.800781 519.46875 C 354.800781 505.414062 366.171875 494.074219 380.21875 494.074219 C 394.285156 494.074219 405.636719 505.414062 405.636719 519.46875 C 405.636719 533.5 394.285156 544.859375 380.21875 544.859375 Z M 380.21875 544.859375 " clip-rule="nonzero"/></clipPath></defs><g clip-path="url(#fb7e91c30a)"><g clip-path="url(#be91890266)"><path fill="#e5e7eb" d="M 8.589844 9.96875 L 8.589844 448.238281 L 452.84375 448.238281 L 452.84375 9.96875 Z M 8.589844 9.96875 " fill-opacity="1" fill-rule="nonzero"/></g></g><g clip-path="url(#3c08292230)"><g clip-path="url(#a6296563c3)"><path fill="#e5e7eb" d="M 147.578125 151.222656 L 147.578125 589.558594 L 591.835938 589.558594 L 591.835938 151.222656 Z M 147.578125 151.222656 " fill-opacity="1" fill-rule="nonzero"/></g></g></svg>