<svg xmlns="http://www.w3.org/2000/svg" xmlns:xlink="http://www.w3.org/1999/xlink" width="800" zoomAndPan="magnify" viewBox="0 0 600 599.999999" height="800" preserveAspectRatio="xMidYMid meet" version="1.0"><defs><clipPath id="5632dba25b"><path d="M 8.25 40 L 591.75 40 L 591.75 560 L 8.25 560 Z M 8.25 40 " clip-rule="nonzero"/></clipPath></defs><g clip-path="url(#5632dba25b)"><path fill="#e5e7eb" d="M 487.617188 208.839844 C 481.589844 206.761719 475.335938 204.792969 468.875 202.933594 C 469.941406 198.609375 470.921875 194.34375 471.785156 190.148438 C 485.957031 121.269531 476.699219 65.78125 445.011719 47.511719 C 414.621094 29.992188 364.945312 48.257812 314.765625 91.925781 C 309.941406 96.125 305.097656 100.570312 300.273438 105.226562 C 297.042969 102.144531 293.835938 99.167969 290.628906 96.316406 C 238.039062 49.628906 185.328125 29.949219 153.675781 48.273438 C 123.328125 65.839844 114.339844 118.007812 127.113281 183.285156 C 128.347656 189.589844 129.789062 196.027344 131.417969 202.574219 C 123.957031 204.691406 116.757812 206.949219 109.867188 209.351562 C 48.214844 230.84375 8.839844 264.53125 8.839844 299.476562 C 8.839844 335.550781 51.109375 371.765625 115.324219 393.714844 C 120.390625 395.445312 125.648438 397.082031 131.066406 398.628906 C 129.308594 405.703125 127.78125 412.640625 126.496094 419.417969 C 114.316406 483.5625 123.828125 534.492188 154.097656 551.9375 C 185.359375 569.976562 237.835938 551.4375 288.921875 506.789062 C 292.972656 503.261719 297.023438 499.507812 301.070312 495.597656 C 306.347656 500.644531 311.601562 505.445312 316.8125 509.949219 C 366.308594 552.53125 415.191406 569.726562 445.421875 552.234375 C 476.652344 534.152344 486.820312 479.421875 473.628906 412.867188 C 472.628906 407.773438 471.445312 402.585938 470.148438 397.308594 C 473.832031 396.21875 477.449219 395.078125 480.976562 393.917969 C 547.738281 371.789062 591.160156 336.054688 591.160156 299.476562 C 591.160156 264.402344 550.511719 230.492188 487.617188 208.839844 Z M 473.152344 370.308594 C 469.964844 371.355469 466.691406 372.378906 463.371094 373.355469 C 456 350.042969 446.058594 325.226562 433.867188 299.589844 C 445.492188 274.570312 455.042969 250.082031 462.210938 226.902344 C 468.167969 228.625 473.945312 230.445312 479.519531 232.359375 C 533.40625 250.914062 566.277344 278.34375 566.277344 299.476562 C 566.277344 321.972656 530.792969 351.203125 473.152344 370.308594 Z M 449.222656 417.691406 C 455.066406 447.125 455.886719 473.738281 452.019531 494.550781 C 448.5625 513.246094 441.578125 525.710938 432.957031 530.695312 C 414.601562 541.316406 375.363281 527.507812 333.050781 491.09375 C 328.183594 486.90625 323.292969 482.449219 318.402344 477.742188 C 334.804688 459.792969 351.203125 438.933594 367.21875 415.757812 C 395.355469 413.277344 421.949219 409.183594 446.082031 403.609375 C 447.265625 408.410156 448.3125 413.09375 449.222656 417.691406 Z M 207.375 528.851562 C 189.445312 535.199219 175.167969 535.378906 166.535156 530.398438 C 148.167969 519.796875 140.53125 478.902344 150.945312 424.058594 C 152.140625 417.78125 153.558594 411.320312 155.195312 404.722656 C 179.050781 410 205.453125 413.800781 233.667969 416.074219 C 249.785156 438.753906 266.664062 459.589844 283.65625 477.832031 C 279.949219 481.425781 276.238281 484.835938 272.554688 488.042969 C 249.96875 507.8125 227.328125 521.824219 207.375 528.851562 Z M 123.378906 370.171875 C 94.984375 360.460938 71.535156 347.859375 55.460938 334.074219 C 41.015625 321.722656 33.726562 309.441406 33.726562 299.476562 C 33.726562 278.277344 65.335938 251.222656 118.0625 232.839844 C 124.460938 230.609375 131.15625 228.507812 138.105469 226.535156 C 145.394531 250.234375 154.953125 275.023438 166.488281 300.066406 C 154.804688 325.5 145.109375 350.679688 137.75 374.675781 C 132.796875 373.242188 127.996094 371.742188 123.378906 370.171875 Z M 151.535156 178.507812 C 140.589844 122.578125 147.859375 80.390625 166.148438 69.800781 C 185.628906 58.523438 228.707031 74.601562 274.101562 114.917969 C 277.011719 117.496094 279.925781 120.191406 282.859375 122.984375 C 265.9375 141.148438 249.214844 161.832031 233.242188 184.371094 C 205.855469 186.910156 179.640625 190.984375 155.539062 196.445312 C 154.023438 190.351562 152.679688 184.363281 151.535156 178.507812 Z M 402.707031 240.53125 C 396.949219 230.578125 391.035156 220.859375 385.007812 211.40625 C 403.59375 213.757812 421.382812 216.875 438.101562 220.691406 C 433.09375 236.773438 426.839844 253.589844 419.46875 270.839844 C 414.191406 260.804688 408.597656 250.691406 402.707031 240.53125 Z M 300.277344 140.761719 C 311.765625 153.191406 323.25 167.070312 334.554688 182.128906 C 323.160156 181.589844 311.628906 181.3125 300.003906 181.3125 C 288.492188 181.3125 277.050781 181.585938 265.722656 182.113281 C 277.03125 167.195312 288.628906 153.335938 300.277344 140.761719 Z M 197.191406 240.703125 C 191.4375 250.679688 185.953125 260.738281 180.753906 270.816406 C 173.511719 253.632812 167.3125 236.738281 162.25 220.425781 C 178.863281 216.710938 196.582031 213.667969 215.042969 211.363281 C 208.925781 220.902344 202.964844 230.691406 197.191406 240.699219 Z M 215.574219 389.347656 C 196.5 387.234375 178.515625 384.34375 161.90625 380.726562 C 167.050781 364.121094 173.382812 346.878906 180.78125 329.320312 C 185.992188 339.398438 191.5 349.449219 197.289062 359.460938 L 197.292969 359.460938 C 203.191406 369.648438 209.304688 379.613281 215.574219 389.347656 Z M 300.960938 459.929688 C 289.175781 447.214844 277.417969 433.132812 265.929688 418.007812 C 277.074219 418.441406 288.449219 418.667969 300.003906 418.667969 C 311.878906 418.667969 323.613281 418.394531 335.148438 417.894531 C 323.820312 433.292969 312.355469 447.398438 300.960938 459.929688 Z M 419.699219 328.433594 C 427.476562 346.175781 434.050781 363.324219 439.261719 379.65625 C 422.382812 383.503906 404.140625 386.59375 384.941406 388.914062 C 390.992188 379.339844 396.949219 369.445312 402.820312 359.277344 C 408.757812 348.996094 414.375 338.691406 419.699219 328.433594 Z M 381.253906 346.859375 C 372.15625 362.644531 362.808594 377.703125 353.324219 391.917969 C 336.058594 393.148438 318.203125 393.785156 300.003906 393.785156 C 281.875 393.785156 264.246094 393.238281 247.277344 392.121094 C 237.40625 377.722656 227.863281 362.621094 218.816406 346.992188 L 218.820312 346.992188 C 209.796875 331.414062 201.496094 315.695312 193.972656 300.066406 C 201.492188 284.417969 209.777344 268.679688 218.746094 253.125 L 218.742188 253.128906 C 227.734375 237.535156 237.199219 222.5 246.980469 208.179688 C 264.292969 206.871094 282.054688 206.1875 300.003906 206.1875 C 318.042969 206.1875 335.808594 206.875 353.117188 208.195312 C 362.761719 222.410156 372.15625 237.398438 381.1875 252.996094 C 390.308594 268.769531 398.703125 284.394531 406.277344 299.726562 C 398.726562 315.308594 390.355469 331.09375 381.253906 346.859375 Z M 432.574219 69.054688 C 452.089844 80.300781 459.664062 125.652344 447.402344 185.121094 C 446.628906 188.914062 445.742188 192.78125 444.789062 196.695312 C 420.628906 191.121094 394.402344 186.976562 366.949219 184.398438 C 350.933594 161.613281 334.351562 140.898438 317.699219 122.964844 C 322.183594 118.660156 326.664062 114.554688 331.097656 110.679688 C 374.089844 73.269531 414.285156 58.5 432.574219 69.054688 Z M 300.003906 247.46875 C 328.710938 247.46875 352.003906 270.742188 352.003906 299.46875 C 352.003906 328.175781 328.710938 351.46875 300.003906 351.46875 C 271.296875 351.46875 248.003906 328.175781 248.003906 299.46875 C 248.003906 270.742188 271.296875 247.46875 300.003906 247.46875 Z M 300.003906 247.46875 " fill-opacity="1" fill-rule="nonzero"/></g></svg>