<svg xmlns="http://www.w3.org/2000/svg" xmlns:xlink="http://www.w3.org/1999/xlink" width="800" zoomAndPan="magnify" viewBox="0 0 600 599.999999" height="800" preserveAspectRatio="xMidYMid meet" version="1.0"><defs><clipPath id="e200eaa9ae"><path d="M 219 196 L 586 196 L 586 574.289062 L 219 574.289062 Z M 219 196 " clip-rule="nonzero"/></clipPath></defs><path fill="#e5e7eb" d="M 208 104.683594 C 229.40625 77.636719 269.714844 64.277344 297.191406 63.585938 C 374.238281 62.113281 406.359375 159.136719 408.835938 197.707031 L 444.5 208.515625 C 436.289062 90.277344 363.550781 28.253906 293.953125 28.253906 C 228.691406 28.230469 168.429688 76.183594 144.144531 146.492188 C 110.976562 240.230469 132.738281 330.347656 173.40625 402.46875 C 169.859375 407.160156 167.714844 415.421875 168.429688 423.347656 C 169.121094 444.992188 187.3125 463.015625 209.097656 463.015625 L 210.527344 463.015625 C 233.359375 462.300781 250.835938 443.207031 249.765625 420.46875 C 249.765625 398.824219 231.214844 380.847656 209.453125 380.847656 L 208 380.847656 C 206.574219 380.847656 204.453125 380.847656 202.644531 381.539062 C 173.050781 331.0625 160.550781 276.96875 165.214844 218.613281 C 168.050781 174.613281 182.335938 136.398438 208 104.683594 Z M 208 104.683594 " fill-opacity="1" fill-rule="nonzero"/><path fill="#e5e7eb" d="M 36.097656 513.898438 C 60 549.945312 108.882812 572.992188 162.382812 572.992188 C 176.644531 572.992188 191.644531 571.945312 206.265625 568.324219 C 299.027344 550.300781 369.3125 494.0625 409.621094 411.160156 L 409.953125 410.421875 C 430.644531 408.613281 446.691406 390.207031 445.644531 368.207031 C 444.550781 346.207031 426.714844 328.5625 404.976562 328.5625 L 403.527344 328.5625 C 381.074219 329.300781 363.574219 348.398438 364.289062 371.136719 C 365 382.660156 369.667969 392.039062 376.050781 398.875 C 351.097656 447.921875 313.644531 483.945312 256.90625 514.253906 C 218.738281 534.421875 178.429688 542.015625 139.191406 536.613281 C 106.382812 531.945312 80.714844 517.113281 65 493.347656 C 41.476562 457.277344 39.335938 418.375 58.929688 379.445312 C 73.238281 351.324219 94.621094 330.777344 108.90625 320.660156 C 105.335938 311.300781 101.050781 295.445312 98.90625 283.5625 C -6.734375 359.96875 4 464.492188 36.097656 513.898438 Z M 36.097656 513.898438 " fill-opacity="1" fill-rule="nonzero"/><g clip-path="url(#e200eaa9ae)"><path fill="#e5e7eb" d="M 572.597656 497.992188 C 593.976562 454.730469 592.214844 381.921875 537.621094 319.539062 L 537.289062 320.253906 C 482.027344 254.636719 400.667969 218.585938 307.882812 218.585938 L 295.738281 218.585938 C 289.714844 205.253906 275.8125 196.945312 260.097656 196.945312 L 259.027344 196.945312 C 236.574219 196.945312 219.074219 216.445312 219.8125 239.136719 C 220.527344 260.753906 238.714844 278.800781 260.476562 278.800781 L 262.238281 278.800781 C 278.3125 278.085938 292.214844 267.96875 297.90625 253.5625 L 311.121094 253.5625 C 366.097656 253.5625 418.144531 269.777344 465.621094 301.492188 C 501.976562 325.660156 528.050781 357.375 542.667969 395.230469 C 555.476562 426.230469 554.789062 456.515625 541.597656 481.777344 C 521.265625 521.421875 487 542.347656 441.714844 542.347656 C 413.167969 542.347656 385.359375 533.324219 371.074219 526.847656 C 362.527344 534.015625 348.238281 545.921875 337.882812 553.160156 C 369.265625 567.539062 401.027344 575.847656 431.691406 575.847656 C 501.265625 575.847656 552.953125 536.230469 572.597656 497.992188 Z M 572.597656 497.992188 " fill-opacity="1" fill-rule="nonzero"/></g></svg>