<svg xmlns="http://www.w3.org/2000/svg" xmlns:xlink="http://www.w3.org/1999/xlink" width="800" zoomAndPan="magnify" viewBox="0 0 600 599.999999" height="800" preserveAspectRatio="xMidYMid meet" version="1.0"><path fill="#e5e7eb" d="M 504.109375 334.851562 C 484.398438 334.953125 467.324219 339.683594 453.023438 346.75 C 447.792969 336.300781 442.488281 327.109375 441.605469 320.277344 C 440.566406 312.300781 439.363281 307.53125 440.617188 298.03125 C 441.875 288.535156 447.371094 275.074219 447.292969 274.058594 C 447.21875 273.046875 446.0625 268.214844 434.695312 268.125 C 423.328125 268.046875 413.601562 270.316406 412.460938 273.316406 C 411.320312 276.316406 409.128906 283.070312 407.769531 290.125 C 405.785156 300.429688 385.074219 337.210938 373.320312 356.441406 C 369.476562 348.929688 366.207031 342.3125 365.527344 337.082031 C 364.492188 329.109375 363.285156 324.339844 364.542969 314.839844 C 365.796875 305.339844 371.296875 291.878906 371.21875 290.867188 C 371.140625 289.855469 369.988281 285.019531 358.621094 284.929688 C 347.253906 284.855469 337.523438 287.125 336.382812 290.125 C 335.242188 293.121094 334.015625 300.136719 331.695312 306.929688 C 329.363281 313.710938 301.84375 375.054688 294.628906 390.964844 C 290.953125 399.066406 287.761719 405.582031 285.503906 410.015625 C 285.492188 410.003906 285.492188 409.992188 285.492188 409.992188 C 285.492188 409.992188 285.351562 410.285156 285.121094 410.785156 C 283.183594 414.566406 282.042969 416.65625 282.042969 416.65625 C 282.042969 416.65625 282.058594 416.683594 282.082031 416.734375 C 280.546875 419.515625 278.90625 422.09375 278.097656 422.09375 C 277.535156 422.09375 276.394531 414.695312 278.339844 404.542969 C 282.441406 383.261719 292.273438 350.082031 292.183594 348.929688 C 292.132812 348.339844 294.015625 342.558594 285.761719 339.53125 C 277.738281 336.597656 274.878906 341.492188 274.148438 341.507812 C 273.445312 341.519531 272.917969 343.238281 272.917969 343.238281 C 272.917969 343.238281 281.851562 305.917969 255.875 305.917969 C 239.625 305.917969 217.117188 323.699219 206.03125 339.8125 C 199.035156 343.632812 184.054688 351.8125 168.175781 360.542969 C 162.074219 363.902344 155.84375 367.324219 149.9375 370.582031 C 149.539062 370.132812 149.128906 369.695312 148.71875 369.25 C 117.203125 335.621094 58.96875 311.839844 61.429688 266.625 C 62.328125 250.1875 68.042969 206.90625 173.351562 154.421875 C 259.617188 111.425781 328.683594 123.257812 340.613281 149.472656 C 357.660156 186.949219 303.703125 256.574219 214.121094 266.625 C 179.992188 270.457031 162.011719 257.214844 157.535156 252.292969 C 152.832031 247.097656 152.128906 246.867188 150.371094 247.84375 C 147.515625 249.433594 149.320312 254.007812 150.371094 256.738281 C 153.050781 263.699219 164.023438 276.046875 182.734375 282.199219 C 199.203125 287.609375 239.277344 290.570312 287.734375 271.816406 C 342.023438 250.816406 384.40625 192.382812 371.949219 143.550781 C 359.285156 93.886719 276.957031 77.554688 199.035156 105.246094 C 152.601562 121.730469 102.402344 147.601562 66.300781 181.371094 C 23.378906 221.523438 16.535156 256.484375 19.355469 271.085938 C 29.375 322.980469 100.878906 356.773438 129.507812 381.8125 C 128.097656 382.59375 126.765625 383.324219 125.5625 383.992188 C 111.207031 391.09375 56.699219 419.632812 43.0625 449.769531 C 27.59375 483.960938 45.523438 508.5 57.394531 511.808594 C 94.160156 522.039062 131.890625 503.628906 152.179688 473.371094 C 172.453125 443.128906 169.980469 403.734375 160.675781 385.761719 C 160.5625 385.542969 160.433594 385.324219 160.316406 385.09375 C 164.023438 382.902344 167.804688 380.671875 171.546875 378.464844 C 178.851562 374.171875 186.027344 370.171875 192.242188 366.785156 C 188.757812 376.324219 186.207031 387.773438 184.886719 404.296875 C 183.324219 423.707031 191.28125 448.796875 201.6875 458.667969 C 206.277344 463.015625 211.789062 463.117188 215.273438 463.117188 C 227.382812 463.117188 232.90625 453.039062 238.996094 441.117188 C 246.453125 426.503906 253.082031 409.476562 253.082031 409.476562 C 253.082031 409.476562 244.777344 455.449219 267.410156 455.449219 C 275.664062 455.449219 283.953125 444.746094 287.660156 439.296875 C 287.671875 439.363281 287.671875 439.386719 287.671875 439.386719 C 287.671875 439.386719 287.890625 439.027344 288.3125 438.324219 C 289.171875 437.015625 289.65625 436.183594 289.65625 436.183594 C 289.65625 436.183594 289.671875 436.09375 289.695312 435.9375 C 293.015625 430.183594 300.371094 417.054688 311.394531 395.402344 C 325.644531 367.429688 339.308594 332.378906 339.308594 332.378906 C 339.308594 332.378906 340.574219 340.941406 344.742188 355.121094 C 347.1875 363.453125 352.390625 372.671875 356.507812 381.515625 C 353.199219 386.105469 351.175781 388.734375 351.175781 388.734375 C 351.175781 388.734375 351.1875 388.785156 351.226562 388.875 C 348.585938 392.390625 345.625 396.171875 342.523438 399.863281 C 331.269531 413.257812 317.878906 428.566406 316.085938 432.976562 C 313.96875 438.183594 314.46875 442.003906 318.558594 445.09375 C 321.542969 447.335938 326.851562 447.695312 332.398438 447.324219 C 342.511719 446.644531 349.609375 444.128906 353.121094 442.605469 C 358.59375 440.667969 364.964844 437.628906 370.9375 433.234375 C 381.972656 425.117188 388.621094 413.515625 387.980469 398.132812 C 387.625 389.65625 384.933594 381.261719 381.511719 373.339844 C 382.507812 371.902344 383.507812 370.441406 384.523438 368.980469 C 401.914062 343.542969 415.410156 315.597656 415.410156 315.597656 C 415.410156 315.597656 416.675781 324.160156 420.84375 338.339844 C 422.945312 345.503906 427.109375 353.339844 430.851562 361.003906 C 414.5 374.300781 404.359375 389.746094 400.835938 399.875 C 394.324219 418.617188 399.425781 427.105469 408.988281 429.042969 C 413.320312 429.914062 419.445312 427.925781 424.046875 425.976562 C 429.773438 424.078125 436.65625 420.914062 443.089844 416.183594 C 454.125 408.066406 464.738281 396.710938 464.097656 381.335938 C 463.800781 374.339844 461.90625 367.390625 459.328125 360.722656 C 473.195312 354.941406 491.136719 351.734375 514.003906 354.402344 C 563.050781 360.132812 572.660156 390.761719 570.828125 403.582031 C 568.984375 416.402344 558.703125 423.453125 555.257812 425.578125 C 551.820312 427.707031 550.769531 428.453125 551.054688 430.027344 C 551.476562 432.324219 553.066406 432.246094 556 431.746094 C 560.039062 431.066406 581.746094 421.324219 582.683594 397.65625 C 583.847656 367.582031 555.078125 334.582031 504.109375 334.851562 Z M 126.074219 462.335938 C 109.824219 480.066406 87.140625 486.757812 77.398438 481.117188 C 66.890625 475.027344 71.054688 448.925781 90.984375 430.105469 C 103.132812 418.644531 118.820312 408.082031 129.226562 401.582031 C 131.597656 400.15625 135.070312 398.066406 139.300781 395.53125 C 140.003906 395.132812 140.402344 394.914062 140.402344 394.914062 L 140.390625 394.886719 C 141.210938 394.402344 142.042969 393.902344 142.902344 393.375 C 150.167969 420.15625 143.132812 443.734375 126.074219 462.335938 Z M 244.429688 381.863281 C 238.777344 395.65625 226.9375 430.964844 219.71875 429.066406 C 213.53125 427.4375 209.761719 400.605469 218.488281 374.195312 C 222.875 360.902344 232.253906 345.019531 237.765625 338.851562 C 246.632812 328.929688 256.398438 325.6875 258.769531 329.710938 C 261.78125 334.839844 247.980469 373.210938 244.429688 381.863281 Z M 342.203125 428.527344 C 339.804688 429.785156 337.601562 430.566406 336.589844 429.964844 C 335.832031 429.515625 337.578125 427.863281 337.578125 427.863281 C 337.578125 427.863281 349.804688 414.695312 354.621094 408.707031 C 357.429688 405.222656 360.671875 401.082031 364.207031 396.464844 C 364.234375 396.925781 364.246094 397.386719 364.246094 397.835938 C 364.222656 413.605469 348.996094 424.246094 342.203125 428.527344 Z M 417.523438 411.347656 C 415.730469 410.082031 416.035156 405.964844 421.917969 393.132812 C 424.226562 388.09375 429.507812 379.621094 438.65625 371.519531 C 439.71875 374.851562 440.359375 378.042969 440.347656 381.015625 C 440.234375 400.863281 426.085938 408.273438 417.523438 411.347656 Z M 417.523438 411.347656 " fill-opacity="1" fill-rule="nonzero"/></svg>