<svg xmlns="http://www.w3.org/2000/svg" xmlns:xlink="http://www.w3.org/1999/xlink" width="800" zoomAndPan="magnify" viewBox="0 0 600 599.999999" height="800" preserveAspectRatio="xMidYMid meet" version="1.0">
<rect x="-60" width="720" fill="#e5e7eb" y="-60" height="719.999999"/>
<path fill="" d="M 132.65625 301.96875 L 132.46875 326.554688 L 210.5625 326.554688 L 210.5625 548.460938 L 265.800781 548.460938 L 265.800781 326.554688 L 343.898438 326.554688 L 343.898438 302.460938 C 343.898438 289.125 343.613281 277.96875 343.234375 277.6875 C 342.945312 277.3125 295.421875 277.125 237.796875 277.21875 L 132.9375 277.5 Z M 132.65625 301.96875 " fill-rule="nonzero"/>
<path fill="" d="M 484.148438 276.820312 C 499.382812 280.617188 511.007812 287.390625 521.671875 298.429688 C 527.179688 304.335938 535.382812 315.09375 536.039062 317.671875 C 536.226562 318.445312 510.140625 335.953125 494.320312 345.773438 C 493.757812 346.148438 491.484375 343.664062 488.90625 339.867188 C 481.195312 328.617188 473.085938 323.765625 460.710938 322.921875 C 442.523438 321.679688 430.804688 331.195312 430.898438 347.109375 C 430.898438 351.773438 431.578125 354.539062 433.476562 358.335938 C 437.484375 366.632812 444.914062 371.578125 468.234375 381.679688 C 511.195312 400.148438 529.570312 412.335938 541.007812 429.679688 C 553.757812 449.015625 556.617188 479.859375 547.945312 502.804688 C 538.429688 527.765625 514.804688 544.710938 481.570312 550.335938 C 471.28125 552.140625 446.90625 551.859375 435.84375 549.867188 C 411.75 545.578125 388.898438 533.671875 374.8125 518.0625 C 369.28125 511.96875 358.523438 496.054688 359.179688 494.90625 C 359.484375 494.53125 361.945312 493.007812 364.710938 491.390625 C 367.382812 489.867188 377.484375 484.054688 387 478.523438 L 404.226562 468.539062 L 407.859375 473.859375 C 412.898438 481.570312 423.960938 492.140625 430.617188 495.679688 C 449.765625 505.757812 476.039062 504.328125 489 492.726562 C 494.53125 487.664062 496.804688 482.4375 496.804688 474.726562 C 496.804688 467.765625 495.960938 464.71875 492.328125 459.492188 C 487.664062 452.8125 478.148438 447.1875 451.101562 435.492188 C 420.140625 422.15625 406.804688 413.859375 394.617188 400.710938 C 387.5625 393.09375 380.90625 380.90625 378.140625 370.710938 C 375.84375 362.25 375.28125 341.015625 377.085938 332.4375 C 383.484375 302.53125 406.054688 281.671875 438.609375 275.484375 C 449.179688 273.492188 473.765625 274.242188 484.148438 276.820312 Z M 484.148438 276.820312 " fill-rule="nonzero"/>
</svg>